M48
; DRILL file {KiCad 9.0.2} date 2026-06-23T13:08:06+0530
; FORMAT={-:-/ absolute / metric / decimal}
; #@! TF.CreationDate,2026-06-23T13:08:06+05:30
; #@! TF.GenerationSoftware,Kicad,Pcbnew,9.0.2
; #@! TF.FileFunction,MixedPlating,1,2
FMAT,2
METRIC
; #@! TA.AperFunction,Plated,PTH,ComponentDrill
T1C0.200
; #@! TA.AperFunction,Plated,PTH,ComponentDrill
T2C0.750
; #@! TA.AperFunction,Plated,PTH,ComponentDrill
T3C0.800
; #@! TA.AperFunction,Plated,PTH,ComponentDrill
T4C0.900
; #@! TA.AperFunction,Plated,PTH,ComponentDrill
T5C1.000
; #@! TA.AperFunction,Plated,PTH,ComponentDrill
T6C1.100
; #@! TA.AperFunction,Plated,PTH,ComponentDrill
T7C1.300
%
G90
G05
T1
X185.109Y-90.699
X185.109Y-92.099
X185.809Y-89.999
X185.809Y-91.399
X185.809Y-92.799
X186.509Y-90.699
X186.509Y-92.099
X187.209Y-89.999
X187.209Y-91.399
X187.209Y-92.799
X187.909Y-90.699
X187.909Y-92.099
T2
X120.529Y-73.249
X121.799Y-73.249
X123.069Y-73.249
T3
X105.729Y-60.649
X105.729Y-63.149
X131.049Y-77.849
X131.729Y-84.749
X136.729Y-84.749
X140.929Y-84.649
X141.209Y-77.849
X143.329Y-97.869
X143.329Y-108.029
X145.629Y-69.549
X145.729Y-75.549
X145.929Y-84.649
X146.229Y-60.949
X148.729Y-60.949
X149.729Y-102.469
X149.729Y-112.629
X150.629Y-69.549
X150.729Y-75.549
X155.149Y-69.149
X156.024Y-61.049
X156.829Y-102.469
X156.829Y-112.629
X158.524Y-61.049
X164.949Y-79.529
X165.309Y-69.149
X165.729Y-95.869
X165.729Y-106.029
X167.929Y-73.149
X172.929Y-73.149
X175.109Y-79.529
X178.829Y-108.069
X178.829Y-118.229
X188.529Y-107.769
X188.529Y-117.929
X192.429Y-67.549
X192.429Y-72.549
T4
X149.329Y-91.549
X151.869Y-91.549
T5
X104.9Y-87.76
X104.9Y-90.3
X104.9Y-97.92
X109.98Y-87.76
X109.98Y-90.3
X109.98Y-97.92
X123.129Y-90.749
X123.129Y-95.749
X128.349Y-105.349
X129.949Y-111.849
X130.889Y-105.349
X132.489Y-111.849
X133.429Y-105.349
X134.329Y-93.219
X135.029Y-111.849
X139.329Y-93.219
X151.209Y-80.849
X153.749Y-80.849
X156.289Y-80.849
X158.829Y-80.849
X160.629Y-87.409
X160.629Y-89.949
X160.629Y-92.489
X160.629Y-95.029
T6
X117.049Y-82.449
X127.209Y-82.449
X130.649Y-70.949
X140.809Y-70.949
X168.729Y-60.249
X168.729Y-64.749
X175.229Y-60.249
X175.229Y-64.749
X180.679Y-63.599
X180.679Y-68.099
X187.179Y-63.599
X187.179Y-68.099
T7
X105.779Y-75.216
X110.779Y-75.216
X133.879Y-60.916
X138.879Y-60.916
M30
