%TF.GenerationSoftware,KiCad,Pcbnew,9.0.2*%
%TF.CreationDate,2026-06-23T13:06:33+05:30*%
%TF.ProjectId,rootry-v2,726f6f74-7279-42d7-9632-2e6b69636164,rev?*%
%TF.SameCoordinates,Original*%
%TF.FileFunction,Copper,L2,Bot*%
%TF.FilePolarity,Positive*%
%FSLAX46Y46*%
G04 Gerber Fmt 4.6, Leading zero omitted, Abs format (unit mm)*
G04 Created by KiCad (PCBNEW 9.0.2) date 2026-06-23 13:06:33*
%MOMM*%
%LPD*%
G01*
G04 APERTURE LIST*
G04 Aperture macros list*
%AMRoundRect*
0 Rectangle with rounded corners*
0 $1 Rounding radius*
0 $2 $3 $4 $5 $6 $7 $8 $9 X,Y pos of 4 corners*
0 Add a 4 corners polygon primitive as box body*
4,1,4,$2,$3,$4,$5,$6,$7,$8,$9,$2,$3,0*
0 Add four circle primitives for the rounded corners*
1,1,$1+$1,$2,$3*
1,1,$1+$1,$4,$5*
1,1,$1+$1,$6,$7*
1,1,$1+$1,$8,$9*
0 Add four rect primitives between the rounded corners*
20,1,$1+$1,$2,$3,$4,$5,0*
20,1,$1+$1,$4,$5,$6,$7,0*
20,1,$1+$1,$6,$7,$8,$9,0*
20,1,$1+$1,$8,$9,$2,$3,0*%
G04 Aperture macros list end*
%TA.AperFunction,ComponentPad*%
%ADD10O,1.050000X1.500000*%
%TD*%
%TA.AperFunction,ComponentPad*%
%ADD11R,1.050000X1.500000*%
%TD*%
%TA.AperFunction,ComponentPad*%
%ADD12C,2.000000*%
%TD*%
%TA.AperFunction,ComponentPad*%
%ADD13R,2.000000X2.000000*%
%TD*%
%TA.AperFunction,ComponentPad*%
%ADD14RoundRect,0.250000X-0.750000X-0.750000X0.750000X-0.750000X0.750000X0.750000X-0.750000X0.750000X0*%
%TD*%
%TA.AperFunction,ComponentPad*%
%ADD15R,1.700000X1.700000*%
%TD*%
%TA.AperFunction,ComponentPad*%
%ADD16C,1.700000*%
%TD*%
%TA.AperFunction,ComponentPad*%
%ADD17C,1.600000*%
%TD*%
%TA.AperFunction,HeatsinkPad*%
%ADD18C,0.600000*%
%TD*%
%TA.AperFunction,ComponentPad*%
%ADD19RoundRect,0.250000X-0.550000X-0.550000X0.550000X-0.550000X0.550000X0.550000X-0.550000X0.550000X0*%
%TD*%
%TA.AperFunction,ComponentPad*%
%ADD20RoundRect,0.250001X-1.149999X-1.149999X1.149999X-1.149999X1.149999X1.149999X-1.149999X1.149999X0*%
%TD*%
%TA.AperFunction,ComponentPad*%
%ADD21C,2.800000*%
%TD*%
%TA.AperFunction,ComponentPad*%
%ADD22R,1.800000X1.800000*%
%TD*%
%TA.AperFunction,ComponentPad*%
%ADD23C,1.800000*%
%TD*%
%TA.AperFunction,ComponentPad*%
%ADD24RoundRect,0.249999X0.850001X0.850001X-0.850001X0.850001X-0.850001X-0.850001X0.850001X-0.850001X0*%
%TD*%
%TA.AperFunction,ComponentPad*%
%ADD25C,2.200000*%
%TD*%
%TA.AperFunction,ComponentPad*%
%ADD26RoundRect,0.249999X-0.850001X-0.850001X0.850001X-0.850001X0.850001X0.850001X-0.850001X0.850001X0*%
%TD*%
%TA.AperFunction,ComponentPad*%
%ADD27RoundRect,0.250000X0.750000X-0.750000X0.750000X0.750000X-0.750000X0.750000X-0.750000X-0.750000X0*%
%TD*%
%TA.AperFunction,ComponentPad*%
%ADD28RoundRect,0.250000X-0.550000X0.550000X-0.550000X-0.550000X0.550000X-0.550000X0.550000X0.550000X0*%
%TD*%
G04 APERTURE END LIST*
D10*
%TO.P,Q1,3,E*%
%TO.N,GND*%
X123069000Y-73249000D03*
%TO.P,Q1,2,B*%
%TO.N,Net-(Q1-B)*%
X121799000Y-73249000D03*
D11*
%TO.P,Q1,1,C*%
%TO.N,/RELAY_COIL*%
X120529000Y-73249000D03*
%TD*%
D12*
%TO.P,K1,10*%
%TO.N,/PUMP+*%
X109980000Y-87760000D03*
%TO.P,K1,9*%
%TO.N,/RELAY_COIL*%
X109980000Y-90300000D03*
%TO.P,K1,6*%
%TO.N,+12V*%
X109980000Y-97920000D03*
%TO.P,K1,5*%
X104900000Y-97920000D03*
%TO.P,K1,2*%
X104900000Y-90300000D03*
D13*
%TO.P,K1,1*%
%TO.N,unconnected-(K1-Pad1)*%
X104900000Y-87760000D03*
%TD*%
D12*
%TO.P,C10,2*%
%TO.N,Net-(J4-SIM80L1-Pin_1)*%
X139329000Y-93219000D03*
D14*
%TO.P,C10,1*%
%TO.N,Net-(C10-Pad1)*%
X134329000Y-93219000D03*
%TD*%
D15*
%TO.P,J2-DHT22,1,Pin_1*%
%TO.N,+3V3*%
X128349000Y-105349000D03*
D16*
%TO.P,J2-DHT22,2,Pin_2*%
X130889000Y-105349000D03*
%TO.P,J2-DHT22,3,Pin_3*%
%TO.N,GND*%
X133429000Y-105349000D03*
%TD*%
%TO.P,J1-SOIL1,3,Pin_3*%
%TO.N,/SOIL_MOISTURE*%
X135029000Y-111849000D03*
%TO.P,J1-SOIL1,2,Pin_2*%
%TO.N,GND*%
X132489000Y-111849000D03*
D15*
%TO.P,J1-SOIL1,1,Pin_1*%
%TO.N,+3V3*%
X129949000Y-111849000D03*
%TD*%
D17*
%TO.P,R10,1*%
%TO.N,+3V3*%
X143329000Y-108029000D03*
%TO.P,R10,2*%
%TO.N,Net-(D2-K)*%
X143329000Y-97869000D03*
%TD*%
%TO.P,R9,1*%
%TO.N,/BATT_MON*%
X188529000Y-107769000D03*
%TO.P,R9,2*%
%TO.N,GND*%
X188529000Y-117929000D03*
%TD*%
D12*
%TO.P,SW2,1,1*%
%TO.N,GND*%
X168729000Y-60249000D03*
X175229000Y-60249000D03*
%TO.P,SW2,2,2*%
%TO.N,Net-(U1-3V3)*%
X168729000Y-64749000D03*
X175229000Y-64749000D03*
%TD*%
%TO.P,SW1,1,1*%
%TO.N,GND*%
X180679000Y-63599000D03*
X187179000Y-63599000D03*
%TO.P,SW1,2,2*%
%TO.N,Net-(U1-3V3)*%
X180679000Y-68099000D03*
X187179000Y-68099000D03*
%TD*%
D17*
%TO.P,R7,1*%
%TO.N,/I2C_SCL*%
X156829000Y-102469000D03*
%TO.P,R7,2*%
%TO.N,+3V3*%
X156829000Y-112629000D03*
%TD*%
D18*
%TO.P,U1,41,GND*%
%TO.N,Net-(C5-Pad2)*%
X187209000Y-89999000D03*
X185809000Y-89999000D03*
X187909000Y-90699000D03*
X186509000Y-90699000D03*
X185109000Y-90699000D03*
X187209000Y-91399000D03*
X185809000Y-91399000D03*
X187909000Y-92099000D03*
X186509000Y-92099000D03*
X185109000Y-92099000D03*
X187209000Y-92799000D03*
X185809000Y-92799000D03*
%TD*%
D19*
%TO.P,C2,1*%
%TO.N,+3V3*%
X146229000Y-60949000D03*
D17*
%TO.P,C2,2*%
%TO.N,GND*%
X148729000Y-60949000D03*
%TD*%
%TO.P,C3,1*%
%TO.N,+12V*%
X145629000Y-69549000D03*
%TO.P,C3,2*%
%TO.N,GND*%
X150629000Y-69549000D03*
%TD*%
%TO.P,C5,1*%
%TO.N,GND*%
X192429000Y-67549000D03*
%TO.P,C5,2*%
%TO.N,Net-(C5-Pad2)*%
X192429000Y-72549000D03*
%TD*%
%TO.P,C4,1*%
%TO.N,+3V3*%
X150729000Y-75549000D03*
%TO.P,C4,2*%
%TO.N,GND*%
X145729000Y-75549000D03*
%TD*%
D19*
%TO.P,C1,1*%
%TO.N,+12V*%
X156023888Y-61049000D03*
D17*
%TO.P,C1,2*%
%TO.N,GND*%
X158523888Y-61049000D03*
%TD*%
D15*
%TO.P,J3-LCD1,1,Pin_1*%
%TO.N,GND*%
X151209000Y-80849000D03*
D16*
%TO.P,J3-LCD1,2,Pin_2*%
%TO.N,+3V3*%
X153749000Y-80849000D03*
%TO.P,J3-LCD1,3,Pin_3*%
X156289000Y-80849000D03*
%TO.P,J3-LCD1,4,Pin_4*%
X158829000Y-80849000D03*
%TD*%
D15*
%TO.P,J4-SIM80L1,1,Pin_1*%
%TO.N,Net-(J4-SIM80L1-Pin_1)*%
X160629000Y-95029000D03*
D16*
%TO.P,J4-SIM80L1,2,Pin_2*%
%TO.N,Net-(J4-SIM80L1-Pin_2)*%
X160629000Y-92489000D03*
%TO.P,J4-SIM80L1,3,Pin_3*%
%TO.N,/GSM_RX*%
X160629000Y-89949000D03*
%TO.P,J4-SIM80L1,4,Pin_4*%
%TO.N,/GSM_TX*%
X160629000Y-87409000D03*
%TD*%
D20*
%TO.P,J5,1,Pin_1*%
%TO.N,Net-(D3-A)*%
X105779000Y-75216500D03*
D21*
%TO.P,J5,2,Pin_2*%
%TO.N,GND*%
X110779000Y-75216500D03*
%TD*%
D22*
%TO.P,D2,1,K*%
%TO.N,Net-(D2-K)*%
X149329000Y-91549000D03*
D23*
%TO.P,D2,2,A*%
%TO.N,/STATUS_LED*%
X151869000Y-91549000D03*
%TD*%
D24*
%TO.P,D3,1,K*%
%TO.N,+12V*%
X140809000Y-70949000D03*
D25*
%TO.P,D3,2,A*%
%TO.N,Net-(D3-A)*%
X130649000Y-70949000D03*
%TD*%
D26*
%TO.P,D1,1,K*%
%TO.N,+12V*%
X117049000Y-82449000D03*
D25*
%TO.P,D1,2,A*%
%TO.N,/RELAY_COIL*%
X127209000Y-82449000D03*
%TD*%
D27*
%TO.P,C7,1*%
%TO.N,Net-(C7-Pad1)*%
X123129000Y-95749000D03*
D12*
%TO.P,C7,2*%
%TO.N,Net-(J4-SIM80L1-Pin_2)*%
X123129000Y-90749000D03*
%TD*%
D17*
%TO.P,C8,1*%
%TO.N,GND*%
X131729000Y-84749000D03*
%TO.P,C8,2*%
%TO.N,Net-(C7-Pad1)*%
X136729000Y-84749000D03*
%TD*%
%TO.P,R6,1*%
%TO.N,/I2C_SDA*%
X149729000Y-102469000D03*
%TO.P,R6,2*%
%TO.N,+3V3*%
X149729000Y-112629000D03*
%TD*%
%TO.P,C6,1*%
%TO.N,+3V3*%
X167929000Y-73149000D03*
%TO.P,C6,2*%
%TO.N,Net-(U1-3V3)*%
X172929000Y-73149000D03*
%TD*%
D20*
%TO.P,J6,1,Pin_1*%
%TO.N,/PUMP+*%
X133879000Y-60916500D03*
D21*
%TO.P,J6,2,Pin_2*%
%TO.N,GND*%
X138879000Y-60916500D03*
%TD*%
D17*
%TO.P,R1,1*%
%TO.N,Net-(U1-3V3)*%
X155149000Y-69149000D03*
%TO.P,R1,2*%
%TO.N,Net-(U1-EN)*%
X165309000Y-69149000D03*
%TD*%
%TO.P,R5,1*%
%TO.N,/DHT22_DATA*%
X175109000Y-79529000D03*
%TO.P,R5,2*%
%TO.N,+3V3*%
X164949000Y-79529000D03*
%TD*%
%TO.P,R3,1*%
%TO.N,+12V*%
X178829000Y-108069000D03*
%TO.P,R3,2*%
%TO.N,/BATT_MON*%
X178829000Y-118229000D03*
%TD*%
%TO.P,R4,1*%
%TO.N,Net-(U1-3V3)*%
X165729000Y-95869000D03*
%TO.P,R4,2*%
%TO.N,Net-(U1-IO0)*%
X165729000Y-106029000D03*
%TD*%
%TO.P,R2,1*%
%TO.N,/RELAY_IN*%
X141209000Y-77849000D03*
%TO.P,R2,2*%
%TO.N,Net-(Q1-B)*%
X131049000Y-77849000D03*
%TD*%
%TO.P,C9,1*%
%TO.N,+4V*%
X140929000Y-84649000D03*
%TO.P,C9,2*%
%TO.N,Net-(C10-Pad1)*%
X145929000Y-84649000D03*
%TD*%
%TO.P,C11,2*%
%TO.N,GND*%
X105729000Y-63149000D03*
D28*
%TO.P,C11,1*%
%TO.N,+12V*%
X105729000Y-60649000D03*
%TD*%
%TA.AperFunction,Conductor*%
%TO.N,GND*%
G36*
X195242539Y-52920185D02*
G01*
X195288294Y-52972989D01*
X195299500Y-53024500D01*
X195299500Y-120922876D01*
X195279815Y-120989915D01*
X195227011Y-121035670D01*
X195175376Y-121046876D01*
X99798005Y-120951499D01*
X99730985Y-120931747D01*
X99685283Y-120878898D01*
X99674129Y-120827657D01*
X99670765Y-118126648D01*
X177528500Y-118126648D01*
X177528500Y-118331351D01*
X177560522Y-118533534D01*
X177623781Y-118728223D01*
X177687691Y-118853653D01*
X177713814Y-118904921D01*
X177716715Y-118910613D01*
X177837028Y-119076213D01*
X177981786Y-119220971D01*
X178136749Y-119333556D01*
X178147390Y-119341287D01*
X178263607Y-119400503D01*
X178329776Y-119434218D01*
X178329778Y-119434218D01*
X178329781Y-119434220D01*
X178434137Y-119468127D01*
X178524465Y-119497477D01*
X178625557Y-119513488D01*
X178726648Y-119529500D01*
X178726649Y-119529500D01*
X178931351Y-119529500D01*
X178931352Y-119529500D01*
X179133534Y-119497477D01*
X179328219Y-119434220D01*
X179510610Y-119341287D01*
X179603590Y-119273732D01*
X179676213Y-119220971D01*
X179676215Y-119220968D01*
X179676219Y-119220966D01*
X179820966Y-119076219D01*
X179820968Y-119076215D01*
X179820971Y-119076213D01*
X179941286Y-118910611D01*
X179944186Y-118904921D01*
X179944186Y-118904920D01*
X180034218Y-118728223D01*
X180034218Y-118728222D01*
X180034220Y-118728219D01*
X180097477Y-118533534D01*
X180129500Y-118331352D01*
X180129500Y-118126648D01*
X180097477Y-117924466D01*
X180097476Y-117924462D01*
X180097476Y-117924461D01*
X180076575Y-117860134D01*
X180065705Y-117826682D01*
X187229000Y-117826682D01*
X187229000Y-118031317D01*
X187261009Y-118233417D01*
X187324244Y-118428031D01*
X187417141Y-118610350D01*
X187417147Y-118610359D01*
X187449523Y-118654921D01*
X187449524Y-118654922D01*
X188129000Y-117975446D01*
X188129000Y-117981661D01*
X188156259Y-118083394D01*
X188208920Y-118174606D01*
X188283394Y-118249080D01*
X188374606Y-118301741D01*
X188476339Y-118329000D01*
X188482553Y-118329000D01*
X187803076Y-119008474D01*
X187847650Y-119040859D01*
X188029968Y-119133755D01*
X188224582Y-119196990D01*
X188426683Y-119229000D01*
X188631317Y-119229000D01*
X188833417Y-119196990D01*
X189028031Y-119133755D01*
X189210349Y-119040859D01*
X189254921Y-119008474D01*
X188575447Y-118329000D01*
X188581661Y-118329000D01*
X188683394Y-118301741D01*
X188774606Y-118249080D01*
X188849080Y-118174606D01*
X188901741Y-118083394D01*
X188929000Y-117981661D01*
X188929000Y-117975447D01*
X189608474Y-118654921D01*
X189640859Y-118610349D01*
X189733755Y-118428031D01*
X189796990Y-118233417D01*
X189829000Y-118031317D01*
X189829000Y-117826682D01*
X189796990Y-117624582D01*
X189733755Y-117429968D01*
X189640859Y-117247650D01*
X189608474Y-117203077D01*
X189608474Y-117203076D01*
X188929000Y-117882551D01*
X188929000Y-117876339D01*
X188901741Y-117774606D01*
X188849080Y-117683394D01*
X188774606Y-117608920D01*
X188683394Y-117556259D01*
X188581661Y-117529000D01*
X188575446Y-117529000D01*
X189254922Y-116849524D01*
X189254921Y-116849523D01*
X189210359Y-116817147D01*
X189210350Y-116817141D01*
X189028031Y-116724244D01*
X188833417Y-116661009D01*
X188631317Y-116629000D01*
X188426683Y-116629000D01*
X188224582Y-116661009D01*
X188029968Y-116724244D01*
X187847644Y-116817143D01*
X187803077Y-116849523D01*
X187803077Y-116849524D01*
X188482554Y-117529000D01*
X188476339Y-117529000D01*
X188374606Y-117556259D01*
X188283394Y-117608920D01*
X188208920Y-117683394D01*
X188156259Y-117774606D01*
X188129000Y-117876339D01*
X188129000Y-117882553D01*
X187449524Y-117203077D01*
X187449523Y-117203077D01*
X187417143Y-117247644D01*
X187324244Y-117429968D01*
X187261009Y-117624582D01*
X187229000Y-117826682D01*
X180065705Y-117826682D01*
X180034218Y-117729776D01*
X179955582Y-117575446D01*
X179941287Y-117547390D01*
X179927926Y-117529000D01*
X179820971Y-117381786D01*
X179676213Y-117237028D01*
X179510613Y-117116715D01*
X179510612Y-117116714D01*
X179510610Y-117116713D01*
X179328219Y-117023780D01*
X179240411Y-116995249D01*
X179133534Y-116960522D01*
X178958995Y-116932878D01*
X178931352Y-116928500D01*
X178726648Y-116928500D01*
X178702329Y-116932351D01*
X178524465Y-116960522D01*
X178329776Y-117023781D01*
X178147386Y-117116715D01*
X177981786Y-117237028D01*
X177837028Y-117381786D01*
X177716715Y-117547386D01*
X177623781Y-117729776D01*
X177560522Y-117924465D01*
X177528500Y-118126648D01*
X99670765Y-118126648D01*
X99661830Y-110951135D01*
X128598500Y-110951135D01*
X128598500Y-112746870D01*
X128598501Y-112746876D01*
X128604908Y-112806483D01*
X128655202Y-112941328D01*
X128655206Y-112941335D01*
X128741452Y-113056544D01*
X128741455Y-113056547D01*
X128856664Y-113142793D01*
X128856671Y-113142797D01*
X128991517Y-113193091D01*
X128991516Y-113193091D01*
X128998444Y-113193835D01*
X129051127Y-113199500D01*
X130846872Y-113199499D01*
X130906483Y-113193091D01*
X131041331Y-113142796D01*
X131156546Y-113056546D01*
X131242796Y-112941331D01*
X131293091Y-112806483D01*
X131299500Y-112746873D01*
X131299499Y-112722979D01*
X131302330Y-112709963D01*
X131312940Y-112690525D01*
X131319179Y-112669275D01*
X131335803Y-112648643D01*
X131335808Y-112648636D01*
X131335811Y-112648634D01*
X131335818Y-112648626D01*
X132006037Y-111978408D01*
X132023075Y-112041993D01*
X132088901Y-112156007D01*
X132181993Y-112249099D01*
X132296007Y-112314925D01*
X132359590Y-112331962D01*
X131727282Y-112964269D01*
X131727282Y-112964270D01*
X131781449Y-113003624D01*
X131970782Y-113100095D01*
X132172870Y-113165757D01*
X132382754Y-113199000D01*
X132595246Y-113199000D01*
X132805127Y-113165757D01*
X132805130Y-113165757D01*
X133007217Y-113100095D01*
X133196554Y-113003622D01*
X133250716Y-112964270D01*
X133250717Y-112964270D01*
X132618408Y-112331962D01*
X132681993Y-112314925D01*
X132796007Y-112249099D01*
X132889099Y-112156007D01*
X132954925Y-112041993D01*
X132971962Y-111978408D01*
X133604270Y-112610717D01*
X133604270Y-112610716D01*
X133643622Y-112556555D01*
X133648232Y-112547507D01*
X133696205Y-112496709D01*
X133764025Y-112479912D01*
X133830161Y-112502447D01*
X133869204Y-112547504D01*
X133873949Y-112556817D01*
X133998890Y-112728786D01*
X134149213Y-112879109D01*
X134321179Y-113004048D01*
X134321181Y-113004049D01*
X134321184Y-113004051D01*
X134510588Y-113100557D01*
X134712757Y-113166246D01*
X134922713Y-113199500D01*
X134922714Y-113199500D01*
X135135286Y-113199500D01*
X135135287Y-113199500D01*
X135345243Y-113166246D01*
X135547412Y-113100557D01*
X135736816Y-113004051D01*
X135823138Y-112941335D01*
X135908786Y-112879109D01*
X135908788Y-112879106D01*
X135908792Y-112879104D01*
X136059104Y-112728792D01*
X136059106Y-112728788D01*
X136059109Y-112728786D01*
X136184050Y-112556817D01*
X136184184Y-112556555D01*
X136199422Y-112526648D01*
X148428500Y-112526648D01*
X148428500Y-112731351D01*
X148460522Y-112933534D01*
X148523781Y-113128223D01*
X148616715Y-113310613D01*
X148737028Y-113476213D01*
X148881786Y-113620971D01*
X149036749Y-113733556D01*
X149047390Y-113741287D01*
X149163607Y-113800503D01*
X149229776Y-113834218D01*
X149229778Y-113834218D01*
X149229781Y-113834220D01*
X149334137Y-113868127D01*
X149424465Y-113897477D01*
X149525557Y-113913488D01*
X149626648Y-113929500D01*
X149626649Y-113929500D01*
X149831351Y-113929500D01*
X149831352Y-113929500D01*
X150033534Y-113897477D01*
X150228219Y-113834220D01*
X150410610Y-113741287D01*
X150503590Y-113673732D01*
X150576213Y-113620971D01*
X150576215Y-113620968D01*
X150576219Y-113620966D01*
X150720966Y-113476219D01*
X150720968Y-113476215D01*
X150720971Y-113476213D01*
X150773732Y-113403590D01*
X150841287Y-113310610D01*
X150934220Y-113128219D01*
X150997477Y-112933534D01*
X151029500Y-112731352D01*
X151029500Y-112526648D01*
X155528500Y-112526648D01*
X155528500Y-112731351D01*
X155560522Y-112933534D01*
X155623781Y-113128223D01*
X155716715Y-113310613D01*
X155837028Y-113476213D01*
X155981786Y-113620971D01*
X156136749Y-113733556D01*
X156147390Y-113741287D01*
X156263607Y-113800503D01*
X156329776Y-113834218D01*
X156329778Y-113834218D01*
X156329781Y-113834220D01*
X156434137Y-113868127D01*
X156524465Y-113897477D01*
X156625557Y-113913488D01*
X156726648Y-113929500D01*
X156726649Y-113929500D01*
X156931351Y-113929500D01*
X156931352Y-113929500D01*
X157133534Y-113897477D01*
X157328219Y-113834220D01*
X157510610Y-113741287D01*
X157603590Y-113673732D01*
X157676213Y-113620971D01*
X157676215Y-113620968D01*
X157676219Y-113620966D01*
X157820966Y-113476219D01*
X157820968Y-113476215D01*
X157820971Y-113476213D01*
X157873732Y-113403590D01*
X157941287Y-113310610D01*
X158034220Y-113128219D01*
X158097477Y-112933534D01*
X158129500Y-112731352D01*
X158129500Y-112526648D01*
X158119812Y-112465481D01*
X158097477Y-112324465D01*
X158034218Y-112129776D01*
X157989490Y-112041993D01*
X157941287Y-111947390D01*
X157917628Y-111914826D01*
X157820971Y-111781786D01*
X157676213Y-111637028D01*
X157510613Y-111516715D01*
X157510612Y-111516714D01*
X157510610Y-111516713D01*
X157453653Y-111487691D01*
X157328223Y-111423781D01*
X157133534Y-111360522D01*
X156958995Y-111332878D01*
X156931352Y-111328500D01*
X156726648Y-111328500D01*
X156702329Y-111332351D01*
X156524465Y-111360522D01*
X156329776Y-111423781D01*
X156147386Y-111516715D01*
X155981786Y-111637028D01*
X155837028Y-111781786D01*
X155716715Y-111947386D01*
X155623781Y-112129776D01*
X155560522Y-112324465D01*
X155528500Y-112526648D01*
X151029500Y-112526648D01*
X151019812Y-112465481D01*
X150997477Y-112324465D01*
X150934218Y-112129776D01*
X150889490Y-112041993D01*
X150841287Y-111947390D01*
X150817628Y-111914826D01*
X150720971Y-111781786D01*
X150576213Y-111637028D01*
X150410613Y-111516715D01*
X150410612Y-111516714D01*
X150410610Y-111516713D01*
X150353653Y-111487691D01*
X150228223Y-111423781D01*
X150033534Y-111360522D01*
X149858995Y-111332878D01*
X149831352Y-111328500D01*
X149626648Y-111328500D01*
X149602329Y-111332351D01*
X149424465Y-111360522D01*
X149229776Y-111423781D01*
X149047386Y-111516715D01*
X148881786Y-111637028D01*
X148737028Y-111781786D01*
X148616715Y-111947386D01*
X148523781Y-112129776D01*
X148460522Y-112324465D01*
X148428500Y-112526648D01*
X136199422Y-112526648D01*
X136280557Y-112367412D01*
X136346246Y-112165243D01*
X136379500Y-111955287D01*
X136379500Y-111742713D01*
X136346246Y-111532757D01*
X136280557Y-111330588D01*
X136184051Y-111141184D01*
X136184049Y-111141181D01*
X136184048Y-111141179D01*
X136059109Y-110969213D01*
X135908786Y-110818890D01*
X135736820Y-110693951D01*
X135547414Y-110597444D01*
X135547413Y-110597443D01*
X135547412Y-110597443D01*
X135345243Y-110531754D01*
X135345241Y-110531753D01*
X135345240Y-110531753D01*
X135183957Y-110506208D01*
X135135287Y-110498500D01*
X134922713Y-110498500D01*
X134874042Y-110506208D01*
X134712760Y-110531753D01*
X134510585Y-110597444D01*
X134321179Y-110693951D01*
X134149213Y-110818890D01*
X133998890Y-110969213D01*
X133873949Y-111141182D01*
X133869202Y-111150499D01*
X133821227Y-111201293D01*
X133753405Y-111218087D01*
X133687271Y-111195548D01*
X133648234Y-111150495D01*
X133643626Y-111141452D01*
X133604270Y-111087282D01*
X133604269Y-111087282D01*
X132971962Y-111719590D01*
X132954925Y-111656007D01*
X132889099Y-111541993D01*
X132796007Y-111448901D01*
X132681993Y-111383075D01*
X132618409Y-111366037D01*
X133250716Y-110733728D01*
X133196550Y-110694375D01*
X133007217Y-110597904D01*
X132805129Y-110532242D01*
X132595246Y-110499000D01*
X132382754Y-110499000D01*
X132172872Y-110532242D01*
X132172869Y-110532242D01*
X131970782Y-110597904D01*
X131781439Y-110694380D01*
X131727282Y-110733727D01*
X131727282Y-110733728D01*
X132359591Y-111366037D01*
X132296007Y-111383075D01*
X132181993Y-111448901D01*
X132088901Y-111541993D01*
X132023075Y-111656007D01*
X132006037Y-111719591D01*
X131335818Y-111049372D01*
X131302333Y-110988049D01*
X131302330Y-110988036D01*
X131299499Y-110975015D01*
X131299499Y-110951128D01*
X131293091Y-110891517D01*
X131264926Y-110816002D01*
X131242798Y-110756673D01*
X131242793Y-110756664D01*
X131156547Y-110641455D01*
X131156544Y-110641452D01*
X131041335Y-110555206D01*
X131041328Y-110555202D01*
X130906482Y-110504908D01*
X130906483Y-110504908D01*
X130846883Y-110498501D01*
X130846881Y-110498500D01*
X130846873Y-110498500D01*
X130846864Y-110498500D01*
X129051129Y-110498500D01*
X129051123Y-110498501D01*
X128991516Y-110504908D01*
X128856671Y-110555202D01*
X128856664Y-110555206D01*
X128741455Y-110641452D01*
X128741452Y-110641455D01*
X128655206Y-110756664D01*
X128655202Y-110756671D01*
X128604908Y-110891517D01*
X128598501Y-110951116D01*
X128598500Y-110951135D01*
X99661830Y-110951135D01*
X99658063Y-107926648D01*
X142028500Y-107926648D01*
X142028500Y-108131351D01*
X142060522Y-108333534D01*
X142123781Y-108528223D01*
X142216715Y-108710613D01*
X142337028Y-108876213D01*
X142481786Y-109020971D01*
X142636749Y-109133556D01*
X142647390Y-109141287D01*
X142763607Y-109200503D01*
X142829776Y-109234218D01*
X142829778Y-109234218D01*
X142829781Y-109234220D01*
X142934137Y-109268127D01*
X143024465Y-109297477D01*
X143125557Y-109313488D01*
X143226648Y-109329500D01*
X143226649Y-109329500D01*
X143431351Y-109329500D01*
X143431352Y-109329500D01*
X143633534Y-109297477D01*
X143828219Y-109234220D01*
X144010610Y-109141287D01*
X144109417Y-109069500D01*
X144176213Y-109020971D01*
X144176215Y-109020968D01*
X144176219Y-109020966D01*
X144320966Y-108876219D01*
X144320968Y-108876215D01*
X144320971Y-108876213D01*
X144404698Y-108760971D01*
X144441287Y-108710610D01*
X144534220Y-108528219D01*
X144597477Y-108333534D01*
X144629500Y-108131352D01*
X144629500Y-107966648D01*
X177528500Y-107966648D01*
X177528500Y-108171351D01*
X177560522Y-108373534D01*
X177623781Y-108568223D01*
X177648234Y-108616213D01*
X177696333Y-108710613D01*
X177716715Y-108750613D01*
X177837028Y-108916213D01*
X177981786Y-109060971D01*
X178092330Y-109141284D01*
X178147390Y-109181287D01*
X178251273Y-109234218D01*
X178329776Y-109274218D01*
X178329778Y-109274218D01*
X178329781Y-109274220D01*
X178401359Y-109297477D01*
X178524465Y-109337477D01*
X178625557Y-109353488D01*
X178726648Y-109369500D01*
X178726649Y-109369500D01*
X178931351Y-109369500D01*
X178931352Y-109369500D01*
X179133534Y-109337477D01*
X179328219Y-109274220D01*
X179510610Y-109181287D01*
X179603590Y-109113732D01*
X179676213Y-109060971D01*
X179676215Y-109060968D01*
X179676219Y-109060966D01*
X179820966Y-108916219D01*
X179820968Y-108916215D01*
X179820971Y-108916213D01*
X179933759Y-108760971D01*
X179941287Y-108750610D01*
X180034220Y-108568219D01*
X180097477Y-108373534D01*
X180129500Y-108171352D01*
X180129500Y-107966648D01*
X180097477Y-107764466D01*
X180097476Y-107764462D01*
X180097476Y-107764461D01*
X180076562Y-107700094D01*
X180065694Y-107666648D01*
X187228500Y-107666648D01*
X187228500Y-107871351D01*
X187260522Y-108073534D01*
X187323781Y-108268223D01*
X187416715Y-108450613D01*
X187537028Y-108616213D01*
X187681786Y-108760971D01*
X187836749Y-108873556D01*
X187847390Y-108881287D01*
X187963607Y-108940503D01*
X188029776Y-108974218D01*
X188029778Y-108974218D01*
X188029781Y-108974220D01*
X188134137Y-109008127D01*
X188224465Y-109037477D01*
X188325557Y-109053488D01*
X188426648Y-109069500D01*
X188426649Y-109069500D01*
X188631351Y-109069500D01*
X188631352Y-109069500D01*
X188833534Y-109037477D01*
X189028219Y-108974220D01*
X189210610Y-108881287D01*
X189303590Y-108813732D01*
X189376213Y-108760971D01*
X189376215Y-108760968D01*
X189376219Y-108760966D01*
X189520966Y-108616219D01*
X189520968Y-108616215D01*
X189520971Y-108616213D01*
X189584901Y-108528219D01*
X189641287Y-108450610D01*
X189734220Y-108268219D01*
X189797477Y-108073534D01*
X189829500Y-107871352D01*
X189829500Y-107666648D01*
X189797477Y-107464466D01*
X189772433Y-107387390D01*
X189734218Y-107269776D01*
X189689382Y-107181781D01*
X189641287Y-107087390D01*
X189604702Y-107037034D01*
X189520971Y-106921786D01*
X189376213Y-106777028D01*
X189210613Y-106656715D01*
X189210612Y-106656714D01*
X189210610Y-106656713D01*
X189153653Y-106627691D01*
X189028223Y-106563781D01*
X188833534Y-106500522D01*
X188658995Y-106472878D01*
X188631352Y-106468500D01*
X188426648Y-106468500D01*
X188402329Y-106472351D01*
X188224465Y-106500522D01*
X188029776Y-106563781D01*
X187847386Y-106656715D01*
X187681786Y-106777028D01*
X187537028Y-106921786D01*
X187416715Y-107087386D01*
X187323781Y-107269776D01*
X187260522Y-107464465D01*
X187228500Y-107666648D01*
X180065694Y-107666648D01*
X180034218Y-107569776D01*
X179980559Y-107464466D01*
X179941287Y-107387390D01*
X179899228Y-107329500D01*
X179820971Y-107221786D01*
X179676213Y-107077028D01*
X179510613Y-106956715D01*
X179510612Y-106956714D01*
X179510610Y-106956713D01*
X179432106Y-106916713D01*
X179328223Y-106863781D01*
X179133534Y-106800522D01*
X178958995Y-106772878D01*
X178931352Y-106768500D01*
X178726648Y-106768500D01*
X178702329Y-106772351D01*
X178524465Y-106800522D01*
X178329776Y-106863781D01*
X178147386Y-106956715D01*
X177981786Y-107077028D01*
X177837028Y-107221786D01*
X177716715Y-107387386D01*
X177623781Y-107569776D01*
X177560522Y-107764465D01*
X177528500Y-107966648D01*
X144629500Y-107966648D01*
X144629500Y-107926648D01*
X144620742Y-107871351D01*
X144597477Y-107724465D01*
X144534218Y-107529776D01*
X144500503Y-107463607D01*
X144441287Y-107347390D01*
X144428289Y-107329500D01*
X144320971Y-107181786D01*
X144176213Y-107037028D01*
X144010613Y-106916715D01*
X144010612Y-106916714D01*
X144010610Y-106916713D01*
X143953653Y-106887691D01*
X143828223Y-106823781D01*
X143633534Y-106760522D01*
X143458995Y-106732878D01*
X143431352Y-106728500D01*
X143226648Y-106728500D01*
X143202329Y-106732351D01*
X143024465Y-106760522D01*
X142829776Y-106823781D01*
X142647386Y-106916715D01*
X142481786Y-107037028D01*
X142337028Y-107181786D01*
X142216715Y-107347386D01*
X142123781Y-107529776D01*
X142060522Y-107724465D01*
X142028500Y-107926648D01*
X99658063Y-107926648D01*
X99653735Y-104451135D01*
X126998500Y-104451135D01*
X126998500Y-106246870D01*
X126998501Y-106246876D01*
X127004908Y-106306483D01*
X127055202Y-106441328D01*
X127055206Y-106441335D01*
X127141452Y-106556544D01*
X127141455Y-106556547D01*
X127256664Y-106642793D01*
X127256671Y-106642797D01*
X127391517Y-106693091D01*
X127391516Y-106693091D01*
X127398444Y-106693835D01*
X127451127Y-106699500D01*
X129246872Y-106699499D01*
X129306483Y-106693091D01*
X129441331Y-106642796D01*
X129556546Y-106556546D01*
X129642796Y-106441331D01*
X129691810Y-106309916D01*
X129733681Y-106253984D01*
X129799145Y-106229566D01*
X129867418Y-106244417D01*
X129895673Y-106265569D01*
X130009213Y-106379109D01*
X130181179Y-106504048D01*
X130181181Y-106504049D01*
X130181184Y-106504051D01*
X130370588Y-106600557D01*
X130572757Y-106666246D01*
X130782713Y-106699500D01*
X130782714Y-106699500D01*
X130995286Y-106699500D01*
X130995287Y-106699500D01*
X131205243Y-106666246D01*
X131407412Y-106600557D01*
X131596816Y-106504051D01*
X131683138Y-106441335D01*
X131768786Y-106379109D01*
X131768788Y-106379106D01*
X131768792Y-106379104D01*
X131919104Y-106228792D01*
X131919106Y-106228788D01*
X131919109Y-106228786D01*
X132004890Y-106110717D01*
X132044051Y-106056816D01*
X132048793Y-106047508D01*
X132096763Y-105996711D01*
X132164583Y-105979911D01*
X132230719Y-106002445D01*
X132269763Y-106047500D01*
X132274373Y-106056547D01*
X132313728Y-106110716D01*
X132946037Y-105478408D01*
X132963075Y-105541993D01*
X133028901Y-105656007D01*
X133121993Y-105749099D01*
X133236007Y-105814925D01*
X133299590Y-105831962D01*
X132667282Y-106464269D01*
X132667282Y-106464270D01*
X132721449Y-106503624D01*
X132910782Y-106600095D01*
X133112870Y-106665757D01*
X133322754Y-106699000D01*
X133535246Y-106699000D01*
X133745127Y-106665757D01*
X133745130Y-106665757D01*
X133947217Y-106600095D01*
X134136554Y-106503622D01*
X134190716Y-106464270D01*
X134190717Y-106464270D01*
X133558408Y-105831962D01*
X133621993Y-105814925D01*
X133736007Y-105749099D01*
X133829099Y-105656007D01*
X133894925Y-105541993D01*
X133911962Y-105478408D01*
X134544270Y-106110717D01*
X134544270Y-106110716D01*
X134583622Y-106056554D01*
X134649812Y-105926648D01*
X164428500Y-105926648D01*
X164428500Y-106131351D01*
X164460522Y-106333534D01*
X164523781Y-106528223D01*
X164560637Y-106600555D01*
X164611052Y-106699500D01*
X164616715Y-106710613D01*
X164737028Y-106876213D01*
X164881786Y-107020971D01*
X165036749Y-107133556D01*
X165047390Y-107141287D01*
X165126864Y-107181781D01*
X165229776Y-107234218D01*
X165229778Y-107234218D01*
X165229781Y-107234220D01*
X165334137Y-107268127D01*
X165424465Y-107297477D01*
X165525557Y-107313488D01*
X165626648Y-107329500D01*
X165626649Y-107329500D01*
X165831351Y-107329500D01*
X165831352Y-107329500D01*
X166033534Y-107297477D01*
X166228219Y-107234220D01*
X166410610Y-107141287D01*
X166503590Y-107073732D01*
X166576213Y-107020971D01*
X166576215Y-107020968D01*
X166576219Y-107020966D01*
X166720966Y-106876219D01*
X166720968Y-106876215D01*
X166720971Y-106876213D01*
X166775963Y-106800522D01*
X166841287Y-106710610D01*
X166934220Y-106528219D01*
X166997477Y-106333534D01*
X167029500Y-106131352D01*
X167029500Y-105926648D01*
X166997477Y-105724466D01*
X166990357Y-105702554D01*
X166934218Y-105529776D01*
X166875647Y-105414826D01*
X166841287Y-105347390D01*
X166794632Y-105283174D01*
X166720971Y-105181786D01*
X166576213Y-105037028D01*
X166410613Y-104916715D01*
X166410612Y-104916714D01*
X166410610Y-104916713D01*
X166344592Y-104883075D01*
X166228223Y-104823781D01*
X166033534Y-104760522D01*
X165858995Y-104732878D01*
X165831352Y-104728500D01*
X165626648Y-104728500D01*
X165602329Y-104732351D01*
X165424465Y-104760522D01*
X165229776Y-104823781D01*
X165047386Y-104916715D01*
X164881786Y-105037028D01*
X164737028Y-105181786D01*
X164616715Y-105347386D01*
X164523781Y-105529776D01*
X164460522Y-105724465D01*
X164428500Y-105926648D01*
X134649812Y-105926648D01*
X134680095Y-105867215D01*
X134745757Y-105665130D01*
X134745757Y-105665127D01*
X134779000Y-105455246D01*
X134779000Y-105242753D01*
X134745757Y-105032872D01*
X134745757Y-105032869D01*
X134680095Y-104830782D01*
X134583624Y-104641449D01*
X134544270Y-104587282D01*
X134544269Y-104587282D01*
X133911962Y-105219590D01*
X133894925Y-105156007D01*
X133829099Y-105041993D01*
X133736007Y-104948901D01*
X133621993Y-104883075D01*
X133558409Y-104866037D01*
X134190716Y-104233728D01*
X134136550Y-104194375D01*
X133947217Y-104097904D01*
X133745129Y-104032242D01*
X133535246Y-103999000D01*
X133322754Y-103999000D01*
X133112872Y-104032242D01*
X133112869Y-104032242D01*
X132910782Y-104097904D01*
X132721439Y-104194380D01*
X132667282Y-104233727D01*
X132667282Y-104233728D01*
X133299591Y-104866037D01*
X133236007Y-104883075D01*
X133121993Y-104948901D01*
X133028901Y-105041993D01*
X132963075Y-105156007D01*
X132946037Y-105219591D01*
X132313728Y-104587282D01*
X132313727Y-104587282D01*
X132274380Y-104641440D01*
X132274376Y-104641446D01*
X132269760Y-104650505D01*
X132221781Y-104701297D01*
X132153959Y-104718087D01*
X132087826Y-104695543D01*
X132048794Y-104650493D01*
X132044051Y-104641184D01*
X132044049Y-104641181D01*
X132044048Y-104641179D01*
X131919109Y-104469213D01*
X131768786Y-104318890D01*
X131596820Y-104193951D01*
X131407414Y-104097444D01*
X131407413Y-104097443D01*
X131407412Y-104097443D01*
X131205243Y-104031754D01*
X131205241Y-104031753D01*
X131205240Y-104031753D01*
X131043957Y-104006208D01*
X130995287Y-103998500D01*
X130782713Y-103998500D01*
X130734042Y-104006208D01*
X130572760Y-104031753D01*
X130370585Y-104097444D01*
X130181179Y-104193951D01*
X130009215Y-104318889D01*
X129895673Y-104432431D01*
X129834350Y-104465915D01*
X129764658Y-104460931D01*
X129708725Y-104419059D01*
X129691810Y-104388082D01*
X129642797Y-104256671D01*
X129642793Y-104256664D01*
X129556547Y-104141455D01*
X129556544Y-104141452D01*
X129441335Y-104055206D01*
X129441328Y-104055202D01*
X129306482Y-104004908D01*
X129306483Y-104004908D01*
X129246883Y-103998501D01*
X129246881Y-103998500D01*
X129246873Y-103998500D01*
X129246864Y-103998500D01*
X127451129Y-103998500D01*
X127451123Y-103998501D01*
X127391516Y-104004908D01*
X127256671Y-104055202D01*
X127256664Y-104055206D01*
X127141455Y-104141452D01*
X127141452Y-104141455D01*
X127055206Y-104256664D01*
X127055202Y-104256671D01*
X127004908Y-104391517D01*
X126998501Y-104451116D01*
X126998500Y-104451135D01*
X99653735Y-104451135D01*
X99651139Y-102366648D01*
X148428500Y-102366648D01*
X148428500Y-102571351D01*
X148460522Y-102773534D01*
X148523781Y-102968223D01*
X148616715Y-103150613D01*
X148737028Y-103316213D01*
X148881786Y-103460971D01*
X149036749Y-103573556D01*
X149047390Y-103581287D01*
X149163607Y-103640503D01*
X149229776Y-103674218D01*
X149229778Y-103674218D01*
X149229781Y-103674220D01*
X149334137Y-103708127D01*
X149424465Y-103737477D01*
X149525557Y-103753488D01*
X149626648Y-103769500D01*
X149626649Y-103769500D01*
X149831351Y-103769500D01*
X149831352Y-103769500D01*
X150033534Y-103737477D01*
X150228219Y-103674220D01*
X150410610Y-103581287D01*
X150503590Y-103513732D01*
X150576213Y-103460971D01*
X150576215Y-103460968D01*
X150576219Y-103460966D01*
X150720966Y-103316219D01*
X150720968Y-103316215D01*
X150720971Y-103316213D01*
X150773732Y-103243590D01*
X150841287Y-103150610D01*
X150934220Y-102968219D01*
X150997477Y-102773534D01*
X151029500Y-102571352D01*
X151029500Y-102366648D01*
X155528500Y-102366648D01*
X155528500Y-102571351D01*
X155560522Y-102773534D01*
X155623781Y-102968223D01*
X155716715Y-103150613D01*
X155837028Y-103316213D01*
X155981786Y-103460971D01*
X156136749Y-103573556D01*
X156147390Y-103581287D01*
X156263607Y-103640503D01*
X156329776Y-103674218D01*
X156329778Y-103674218D01*
X156329781Y-103674220D01*
X156434137Y-103708127D01*
X156524465Y-103737477D01*
X156625557Y-103753488D01*
X156726648Y-103769500D01*
X156726649Y-103769500D01*
X156931351Y-103769500D01*
X156931352Y-103769500D01*
X157133534Y-103737477D01*
X157328219Y-103674220D01*
X157510610Y-103581287D01*
X157603590Y-103513732D01*
X157676213Y-103460971D01*
X157676215Y-103460968D01*
X157676219Y-103460966D01*
X157820966Y-103316219D01*
X157820968Y-103316215D01*
X157820971Y-103316213D01*
X157873732Y-103243590D01*
X157941287Y-103150610D01*
X158034220Y-102968219D01*
X158097477Y-102773534D01*
X158129500Y-102571352D01*
X158129500Y-102366648D01*
X158097477Y-102164466D01*
X158034220Y-101969781D01*
X158034218Y-101969778D01*
X158034218Y-101969776D01*
X158000503Y-101903607D01*
X157941287Y-101787390D01*
X157933556Y-101776749D01*
X157820971Y-101621786D01*
X157676213Y-101477028D01*
X157510613Y-101356715D01*
X157510612Y-101356714D01*
X157510610Y-101356713D01*
X157453653Y-101327691D01*
X157328223Y-101263781D01*
X157133534Y-101200522D01*
X156958995Y-101172878D01*
X156931352Y-101168500D01*
X156726648Y-101168500D01*
X156702329Y-101172351D01*
X156524465Y-101200522D01*
X156329776Y-101263781D01*
X156147386Y-101356715D01*
X155981786Y-101477028D01*
X155837028Y-101621786D01*
X155716715Y-101787386D01*
X155623781Y-101969776D01*
X155560522Y-102164465D01*
X155528500Y-102366648D01*
X151029500Y-102366648D01*
X150997477Y-102164466D01*
X150934220Y-101969781D01*
X150934218Y-101969778D01*
X150934218Y-101969776D01*
X150900503Y-101903607D01*
X150841287Y-101787390D01*
X150833556Y-101776749D01*
X150720971Y-101621786D01*
X150576213Y-101477028D01*
X150410613Y-101356715D01*
X150410612Y-101356714D01*
X150410610Y-101356713D01*
X150353653Y-101327691D01*
X150228223Y-101263781D01*
X150033534Y-101200522D01*
X149858995Y-101172878D01*
X149831352Y-101168500D01*
X149626648Y-101168500D01*
X149602329Y-101172351D01*
X149424465Y-101200522D01*
X149229776Y-101263781D01*
X149047386Y-101356715D01*
X148881786Y-101477028D01*
X148737028Y-101621786D01*
X148616715Y-101787386D01*
X148523781Y-101969776D01*
X148460522Y-102164465D01*
X148428500Y-102366648D01*
X99651139Y-102366648D01*
X99645455Y-97801902D01*
X103399500Y-97801902D01*
X103399500Y-98038097D01*
X103436446Y-98271368D01*
X103509433Y-98495996D01*
X103616657Y-98706433D01*
X103755483Y-98897510D01*
X103922490Y-99064517D01*
X104113567Y-99203343D01*
X104212991Y-99254002D01*
X104324003Y-99310566D01*
X104324005Y-99310566D01*
X104324008Y-99310568D01*
X104444412Y-99349689D01*
X104548631Y-99383553D01*
X104781903Y-99420500D01*
X104781908Y-99420500D01*
X105018097Y-99420500D01*
X105251368Y-99383553D01*
X105475992Y-99310568D01*
X105686433Y-99203343D01*
X105877510Y-99064517D01*
X106044517Y-98897510D01*
X106183343Y-98706433D01*
X106290568Y-98495992D01*
X106363553Y-98271368D01*
X106400500Y-98038097D01*
X106400500Y-97801902D01*
X108479500Y-97801902D01*
X108479500Y-98038097D01*
X108516446Y-98271368D01*
X108589433Y-98495996D01*
X108696657Y-98706433D01*
X108835483Y-98897510D01*
X109002490Y-99064517D01*
X109193567Y-99203343D01*
X109292991Y-99254002D01*
X109404003Y-99310566D01*
X109404005Y-99310566D01*
X109404008Y-99310568D01*
X109524412Y-99349689D01*
X109628631Y-99383553D01*
X109861903Y-99420500D01*
X109861908Y-99420500D01*
X110098097Y-99420500D01*
X110331368Y-99383553D01*
X110555992Y-99310568D01*
X110766433Y-99203343D01*
X110957510Y-99064517D01*
X111124517Y-98897510D01*
X111263343Y-98706433D01*
X111370568Y-98495992D01*
X111443553Y-98271368D01*
X111480500Y-98038097D01*
X111480500Y-97801901D01*
X111477217Y-97781173D01*
X111474916Y-97766648D01*
X142028500Y-97766648D01*
X142028500Y-97971351D01*
X142060522Y-98173534D01*
X142123781Y-98368223D01*
X142216715Y-98550613D01*
X142337028Y-98716213D01*
X142481786Y-98860971D01*
X142636749Y-98973556D01*
X142647390Y-98981287D01*
X142763607Y-99040503D01*
X142829776Y-99074218D01*
X142829778Y-99074218D01*
X142829781Y-99074220D01*
X142934137Y-99108127D01*
X143024465Y-99137477D01*
X143125557Y-99153488D01*
X143226648Y-99169500D01*
X143226649Y-99169500D01*
X143431351Y-99169500D01*
X143431352Y-99169500D01*
X143633534Y-99137477D01*
X143828219Y-99074220D01*
X144010610Y-98981287D01*
X144103590Y-98913732D01*
X144176213Y-98860971D01*
X144176215Y-98860968D01*
X144176219Y-98860966D01*
X144320966Y-98716219D01*
X144320968Y-98716215D01*
X144320971Y-98716213D01*
X144373732Y-98643590D01*
X144441287Y-98550610D01*
X144534220Y-98368219D01*
X144597477Y-98173534D01*
X144629500Y-97971352D01*
X144629500Y-97766648D01*
X144597477Y-97564466D01*
X144534220Y-97369781D01*
X144534218Y-97369778D01*
X144534218Y-97369776D01*
X144500503Y-97303607D01*
X144441287Y-97187390D01*
X144428289Y-97169500D01*
X144320971Y-97021786D01*
X144176213Y-96877028D01*
X144010613Y-96756715D01*
X144010612Y-96756714D01*
X144010610Y-96756713D01*
X143953653Y-96727691D01*
X143828223Y-96663781D01*
X143633534Y-96600522D01*
X143458995Y-96572878D01*
X143431352Y-96568500D01*
X143226648Y-96568500D01*
X143202329Y-96572351D01*
X143024465Y-96600522D01*
X142829776Y-96663781D01*
X142647386Y-96756715D01*
X142481786Y-96877028D01*
X142337028Y-97021786D01*
X142216715Y-97187386D01*
X142123781Y-97369776D01*
X142060522Y-97564465D01*
X142028500Y-97766648D01*
X111474916Y-97766648D01*
X111443553Y-97568631D01*
X111378942Y-97369781D01*
X111370568Y-97344008D01*
X111370566Y-97344005D01*
X111370566Y-97344003D01*
X111288944Y-97183812D01*
X111263343Y-97133567D01*
X111124517Y-96942490D01*
X110957510Y-96775483D01*
X110766433Y-96636657D01*
X110555996Y-96529433D01*
X110331368Y-96456446D01*
X110098097Y-96419500D01*
X110098092Y-96419500D01*
X109861908Y-96419500D01*
X109861903Y-96419500D01*
X109628631Y-96456446D01*
X109404003Y-96529433D01*
X109193566Y-96636657D01*
X109084550Y-96715862D01*
X109002490Y-96775483D01*
X109002488Y-96775485D01*
X109002487Y-96775485D01*
X108835485Y-96942487D01*
X108835485Y-96942488D01*
X108835483Y-96942490D01*
X108777875Y-97021781D01*
X108696657Y-97133566D01*
X108589433Y-97344003D01*
X108516446Y-97568631D01*
X108479500Y-97801902D01*
X106400500Y-97801902D01*
X106363553Y-97568631D01*
X106298942Y-97369781D01*
X106290568Y-97344008D01*
X106290566Y-97344005D01*
X106290566Y-97344003D01*
X106208944Y-97183812D01*
X106183343Y-97133567D01*
X106044517Y-96942490D01*
X105877510Y-96775483D01*
X105686433Y-96636657D01*
X105475996Y-96529433D01*
X105251368Y-96456446D01*
X105018097Y-96419500D01*
X105018092Y-96419500D01*
X104781908Y-96419500D01*
X104781903Y-96419500D01*
X104548631Y-96456446D01*
X104324003Y-96529433D01*
X104113566Y-96636657D01*
X104004550Y-96715862D01*
X103922490Y-96775483D01*
X103922488Y-96775485D01*
X103922487Y-96775485D01*
X103755485Y-96942487D01*
X103755485Y-96942488D01*
X103755483Y-96942490D01*
X103697875Y-97021781D01*
X103616657Y-97133566D01*
X103509433Y-97344003D01*
X103436446Y-97568631D01*
X103399500Y-97801902D01*
X99645455Y-97801902D01*
X99641902Y-94948983D01*
X121628500Y-94948983D01*
X121628500Y-96549001D01*
X121628501Y-96549018D01*
X121639000Y-96651796D01*
X121639001Y-96651799D01*
X121694185Y-96818331D01*
X121694187Y-96818336D01*
X121729069Y-96874888D01*
X121786288Y-96967656D01*
X121910344Y-97091712D01*
X122059666Y-97183814D01*
X122226203Y-97238999D01*
X122328991Y-97249500D01*
X123929008Y-97249499D01*
X124031797Y-97238999D01*
X124198334Y-97183814D01*
X124347656Y-97091712D01*
X124471712Y-96967656D01*
X124563814Y-96818334D01*
X124618999Y-96651797D01*
X124629500Y-96549009D01*
X124629499Y-94948992D01*
X124618999Y-94846203D01*
X124563814Y-94679666D01*
X124471712Y-94530344D01*
X124347656Y-94406288D01*
X124198334Y-94314186D01*
X124031797Y-94259001D01*
X124031795Y-94259000D01*
X123929010Y-94248500D01*
X122328998Y-94248500D01*
X122328981Y-94248501D01*
X122226203Y-94259000D01*
X122226200Y-94259001D01*
X122059668Y-94314185D01*
X122059663Y-94314187D01*
X121910342Y-94406289D01*
X121786289Y-94530342D01*
X121694187Y-94679663D01*
X121694185Y-94679668D01*
X121680986Y-94719500D01*
X121639001Y-94846203D01*
X121639001Y-94846204D01*
X121639000Y-94846204D01*
X121628500Y-94948983D01*
X99641902Y-94948983D01*
X99638751Y-92418983D01*
X132828500Y-92418983D01*
X132828500Y-94019001D01*
X132828501Y-94019018D01*
X132839000Y-94121796D01*
X132839001Y-94121799D01*
X132894185Y-94288331D01*
X132894187Y-94288336D01*
X132910132Y-94314187D01*
X132986288Y-94437656D01*
X133110344Y-94561712D01*
X133259666Y-94653814D01*
X133426203Y-94708999D01*
X133528991Y-94719500D01*
X135129008Y-94719499D01*
X135231797Y-94708999D01*
X135398334Y-94653814D01*
X135547656Y-94561712D01*
X135671712Y-94437656D01*
X135763814Y-94288334D01*
X135818999Y-94121797D01*
X135829500Y-94019009D01*
X135829499Y-93100902D01*
X137828500Y-93100902D01*
X137828500Y-93337097D01*
X137865446Y-93570368D01*
X137938433Y-93794996D01*
X138010617Y-93936664D01*
X138045657Y-94005433D01*
X138184483Y-94196510D01*
X138351490Y-94363517D01*
X138542567Y-94502343D01*
X138641991Y-94553002D01*
X138753003Y-94609566D01*
X138753005Y-94609566D01*
X138753008Y-94609568D01*
X138873412Y-94648689D01*
X138977631Y-94682553D01*
X139210903Y-94719500D01*
X139210908Y-94719500D01*
X139447097Y-94719500D01*
X139680368Y-94682553D01*
X139738145Y-94663780D01*
X139904992Y-94609568D01*
X140115433Y-94502343D01*
X140306510Y-94363517D01*
X140473517Y-94196510D01*
X140612343Y-94005433D01*
X140719568Y-93794992D01*
X140792553Y-93570368D01*
X140796785Y-93543649D01*
X140829500Y-93337097D01*
X140829500Y-93100902D01*
X140792553Y-92867631D01*
X140735268Y-92691328D01*
X140719568Y-92643008D01*
X140719566Y-92643005D01*
X140719566Y-92643003D01*
X140645110Y-92496876D01*
X140612343Y-92432567D01*
X140473517Y-92241490D01*
X140306510Y-92074483D01*
X140115433Y-91935657D01*
X140032723Y-91893514D01*
X139904996Y-91828433D01*
X139680368Y-91755446D01*
X139447097Y-91718500D01*
X139447092Y-91718500D01*
X139210908Y-91718500D01*
X139210903Y-91718500D01*
X138977631Y-91755446D01*
X138753003Y-91828433D01*
X138542566Y-91935657D01*
X138453536Y-92000342D01*
X138351490Y-92074483D01*
X138351488Y-92074485D01*
X138351487Y-92074485D01*
X138184485Y-92241487D01*
X138184485Y-92241488D01*
X138184483Y-92241490D01*
X138154308Y-92283022D01*
X138045657Y-92432566D01*
X137938433Y-92643003D01*
X137865446Y-92867631D01*
X137828500Y-93100902D01*
X135829499Y-93100902D01*
X135829499Y-92418992D01*
X135818999Y-92316203D01*
X135763814Y-92149666D01*
X135671712Y-92000344D01*
X135547656Y-91876288D01*
X135454888Y-91819069D01*
X135398336Y-91784187D01*
X135398331Y-91784185D01*
X135396862Y-91783698D01*
X135231797Y-91729001D01*
X135231795Y-91729000D01*
X135129010Y-91718500D01*
X133528998Y-91718500D01*
X133528981Y-91718501D01*
X133426203Y-91729000D01*
X133426200Y-91729001D01*
X133259668Y-91784185D01*
X133259663Y-91784187D01*
X133110342Y-91876289D01*
X132986289Y-92000342D01*
X132894187Y-92149663D01*
X132894185Y-92149668D01*
X132884848Y-92177846D01*
X132839001Y-92316203D01*
X132839001Y-92316204D01*
X132839000Y-92316204D01*
X132828500Y-92418983D01*
X99638751Y-92418983D01*
X99631645Y-86712135D01*
X103399500Y-86712135D01*
X103399500Y-88807870D01*
X103399501Y-88807876D01*
X103405908Y-88867483D01*
X103456202Y-89002328D01*
X103456206Y-89002335D01*
X103542452Y-89117544D01*
X103542455Y-89117547D01*
X103657664Y-89203793D01*
X103665454Y-89208047D01*
X103663646Y-89211357D01*
X103705351Y-89242449D01*
X103729897Y-89307865D01*
X103715180Y-89376167D01*
X103706549Y-89389840D01*
X103616659Y-89513563D01*
X103509433Y-89724003D01*
X103436446Y-89948631D01*
X103399500Y-90181902D01*
X103399500Y-90418097D01*
X103436446Y-90651368D01*
X103509433Y-90875996D01*
X103612448Y-91078172D01*
X103616657Y-91086433D01*
X103755483Y-91277510D01*
X103922490Y-91444517D01*
X104113567Y-91583343D01*
X104164330Y-91609208D01*
X104324003Y-91690566D01*
X104324005Y-91690566D01*
X104324008Y-91690568D01*
X104409974Y-91718500D01*
X104548631Y-91763553D01*
X104781903Y-91800500D01*
X104781908Y-91800500D01*
X105018097Y-91800500D01*
X105251368Y-91763553D01*
X105475992Y-91690568D01*
X105686433Y-91583343D01*
X105877510Y-91444517D01*
X106044517Y-91277510D01*
X106183343Y-91086433D01*
X106290568Y-90875992D01*
X106363553Y-90651368D01*
X106365886Y-90636636D01*
X106400500Y-90418097D01*
X106400500Y-90181902D01*
X106363553Y-89948631D01*
X106304051Y-89765505D01*
X106290568Y-89724008D01*
X106290566Y-89724005D01*
X106290566Y-89724003D01*
X106183342Y-89513566D01*
X106123055Y-89430588D01*
X106093449Y-89389839D01*
X106069970Y-89324035D01*
X106085795Y-89255981D01*
X106134744Y-89208410D01*
X106134546Y-89208047D01*
X106135851Y-89207334D01*
X106135901Y-89207286D01*
X106136111Y-89207192D01*
X106142326Y-89203797D01*
X106142331Y-89203796D01*
X106257546Y-89117546D01*
X106343796Y-89002331D01*
X106394091Y-88867483D01*
X106400500Y-88807873D01*
X106400499Y-87641902D01*
X108479500Y-87641902D01*
X108479500Y-87878097D01*
X108516446Y-88111368D01*
X108589433Y-88335996D01*
X108696657Y-88546433D01*
X108835483Y-88737510D01*
X109002490Y-88904517D01*
X109037127Y-88929683D01*
X109079792Y-88985013D01*
X109085771Y-89054626D01*
X109053165Y-89116421D01*
X109037130Y-89130315D01*
X109019365Y-89143222D01*
X109002488Y-89155484D01*
X108835485Y-89322487D01*
X108835485Y-89322488D01*
X108835483Y-89322490D01*
X108775862Y-89404550D01*
X108696657Y-89513566D01*
X108589433Y-89724003D01*
X108516446Y-89948631D01*
X108479500Y-90181902D01*
X108479500Y-90418097D01*
X108516446Y-90651368D01*
X108589433Y-90875996D01*
X108692448Y-91078172D01*
X108696657Y-91086433D01*
X108835483Y-91277510D01*
X109002490Y-91444517D01*
X109193567Y-91583343D01*
X109244330Y-91609208D01*
X109404003Y-91690566D01*
X109404005Y-91690566D01*
X109404008Y-91690568D01*
X109489974Y-91718500D01*
X109628631Y-91763553D01*
X109861903Y-91800500D01*
X109861908Y-91800500D01*
X110098097Y-91800500D01*
X110331368Y-91763553D01*
X110555992Y-91690568D01*
X110766433Y-91583343D01*
X110957510Y-91444517D01*
X111124517Y-91277510D01*
X111263343Y-91086433D01*
X111370568Y-90875992D01*
X111443553Y-90651368D01*
X111446794Y-90630902D01*
X121628500Y-90630902D01*
X121628500Y-90867097D01*
X121665446Y-91100368D01*
X121738433Y-91324996D01*
X121845657Y-91535433D01*
X121984483Y-91726510D01*
X122151490Y-91893517D01*
X122342567Y-92032343D01*
X122441991Y-92083002D01*
X122553003Y-92139566D01*
X122553005Y-92139566D01*
X122553008Y-92139568D01*
X122584093Y-92149668D01*
X122777631Y-92212553D01*
X123010903Y-92249500D01*
X123010908Y-92249500D01*
X123247097Y-92249500D01*
X123480368Y-92212553D01*
X123704992Y-92139568D01*
X123915433Y-92032343D01*
X124106510Y-91893517D01*
X124273517Y-91726510D01*
X124412343Y-91535433D01*
X124519568Y-91324992D01*
X124592553Y-91100368D01*
X124596067Y-91078179D01*
X124629500Y-90867097D01*
X124629500Y-90630905D01*
X124627330Y-90617206D01*
X124627330Y-90617204D01*
X124624785Y-90601135D01*
X147928500Y-90601135D01*
X147928500Y-92496870D01*
X147928501Y-92496876D01*
X147934908Y-92556483D01*
X147985202Y-92691328D01*
X147985206Y-92691335D01*
X148071452Y-92806544D01*
X148071455Y-92806547D01*
X148186664Y-92892793D01*
X148186671Y-92892797D01*
X148321517Y-92943091D01*
X148321516Y-92943091D01*
X148328444Y-92943835D01*
X148381127Y-92949500D01*
X150276872Y-92949499D01*
X150336483Y-92943091D01*
X150471331Y-92892796D01*
X150586546Y-92806546D01*
X150672796Y-92691331D01*
X150700429Y-92617243D01*
X150702601Y-92611420D01*
X150744471Y-92555486D01*
X150809936Y-92531068D01*
X150878209Y-92545919D01*
X150906464Y-92567071D01*
X150956636Y-92617243D01*
X150956641Y-92617247D01*
X151058603Y-92691326D01*
X151134978Y-92746815D01*
X151255832Y-92808394D01*
X151331393Y-92846895D01*
X151331396Y-92846896D01*
X151432485Y-92879741D01*
X151541049Y-92915015D01*
X151758778Y-92949500D01*
X151758779Y-92949500D01*
X151979221Y-92949500D01*
X151979222Y-92949500D01*
X152196951Y-92915015D01*
X152406606Y-92846895D01*
X152603022Y-92746815D01*
X152781365Y-92617242D01*
X152937242Y-92461365D01*
X153066815Y-92283022D01*
X153166895Y-92086606D01*
X153235015Y-91876951D01*
X153269500Y-91659222D01*
X153269500Y-91438778D01*
X153235015Y-91221049D01*
X153191276Y-91086433D01*
X153166896Y-91011396D01*
X153166895Y-91011393D01*
X153126697Y-90932501D01*
X153066815Y-90814978D01*
X153008501Y-90734715D01*
X152937247Y-90636641D01*
X152937243Y-90636636D01*
X152781363Y-90480756D01*
X152781358Y-90480752D01*
X152603025Y-90351187D01*
X152603024Y-90351186D01*
X152603022Y-90351185D01*
X152485791Y-90291452D01*
X152406606Y-90251104D01*
X152406603Y-90251103D01*
X152196952Y-90182985D01*
X152088086Y-90165742D01*
X151979222Y-90148500D01*
X151758778Y-90148500D01*
X151686201Y-90159995D01*
X151541047Y-90182985D01*
X151331396Y-90251103D01*
X151331393Y-90251104D01*
X151134974Y-90351187D01*
X150956641Y-90480752D01*
X150956636Y-90480756D01*
X150906463Y-90530929D01*
X150845140Y-90564413D01*
X150775448Y-90559428D01*
X150719515Y-90517557D01*
X150702601Y-90486580D01*
X150672797Y-90406671D01*
X150672793Y-90406664D01*
X150586547Y-90291455D01*
X150586544Y-90291452D01*
X150471335Y-90205206D01*
X150471328Y-90205202D01*
X150336482Y-90154908D01*
X150336483Y-90154908D01*
X150276883Y-90148501D01*
X150276881Y-90148500D01*
X150276873Y-90148500D01*
X150276864Y-90148500D01*
X148381129Y-90148500D01*
X148381123Y-90148501D01*
X148321516Y-90154908D01*
X148186671Y-90205202D01*
X148186664Y-90205206D01*
X148071455Y-90291452D01*
X148071452Y-90291455D01*
X147985206Y-90406664D01*
X147985202Y-90406671D01*
X147934908Y-90541517D01*
X147928501Y-90601116D01*
X147928500Y-90601135D01*
X124624785Y-90601135D01*
X124592553Y-90397631D01*
X124524669Y-90188707D01*
X124519568Y-90173008D01*
X124519566Y-90173005D01*
X124519566Y-90173003D01*
X124459586Y-90055286D01*
X124412343Y-89962567D01*
X124273517Y-89771490D01*
X124106510Y-89604483D01*
X123915433Y-89465657D01*
X123704996Y-89358433D01*
X123480368Y-89285446D01*
X123247097Y-89248500D01*
X123247092Y-89248500D01*
X123010908Y-89248500D01*
X123010903Y-89248500D01*
X122777631Y-89285446D01*
X122553003Y-89358433D01*
X122342566Y-89465657D01*
X122233550Y-89544862D01*
X122151490Y-89604483D01*
X122151488Y-89604485D01*
X122151487Y-89604485D01*
X121984485Y-89771487D01*
X121984485Y-89771488D01*
X121984483Y-89771490D01*
X121948636Y-89820829D01*
X121845657Y-89962566D01*
X121738433Y-90173003D01*
X121665446Y-90397631D01*
X121628500Y-90630902D01*
X111446794Y-90630902D01*
X111451510Y-90601128D01*
X111480500Y-90418097D01*
X111480500Y-90181902D01*
X111443553Y-89948631D01*
X111384051Y-89765505D01*
X111370568Y-89724008D01*
X111370566Y-89724005D01*
X111370566Y-89724003D01*
X111263342Y-89513566D01*
X111245281Y-89488707D01*
X111124517Y-89322490D01*
X110957510Y-89155483D01*
X110922872Y-89130317D01*
X110880207Y-89074989D01*
X110874228Y-89005375D01*
X110906833Y-88943580D01*
X110922873Y-88929682D01*
X110957510Y-88904517D01*
X111124517Y-88737510D01*
X111263343Y-88546433D01*
X111370568Y-88335992D01*
X111443553Y-88111368D01*
X111480500Y-87878097D01*
X111480500Y-87641902D01*
X111443553Y-87408631D01*
X111420005Y-87336160D01*
X111409137Y-87302713D01*
X159278500Y-87302713D01*
X159278500Y-87515286D01*
X159311753Y-87725239D01*
X159377444Y-87927414D01*
X159473951Y-88116820D01*
X159598890Y-88288786D01*
X159749213Y-88439109D01*
X159921182Y-88564050D01*
X159929946Y-88568516D01*
X159980742Y-88616491D01*
X159997536Y-88684312D01*
X159974998Y-88750447D01*
X159929946Y-88789484D01*
X159921182Y-88793949D01*
X159749213Y-88918890D01*
X159598890Y-89069213D01*
X159473951Y-89241179D01*
X159377444Y-89430585D01*
X159311753Y-89632760D01*
X159289781Y-89771487D01*
X159278500Y-89842713D01*
X159278500Y-90055287D01*
X159281973Y-90077213D01*
X159309514Y-90251105D01*
X159311754Y-90265243D01*
X159357706Y-90406669D01*
X159377444Y-90467414D01*
X159473951Y-90656820D01*
X159598890Y-90828786D01*
X159749213Y-90979109D01*
X159921182Y-91104050D01*
X159929946Y-91108516D01*
X159980742Y-91156491D01*
X159997536Y-91224312D01*
X159974998Y-91290447D01*
X159929946Y-91329484D01*
X159921182Y-91333949D01*
X159749213Y-91458890D01*
X159598890Y-91609213D01*
X159473951Y-91781179D01*
X159377444Y-91970585D01*
X159311753Y-92172760D01*
X159278500Y-92382713D01*
X159278500Y-92595286D01*
X159293711Y-92691328D01*
X159311754Y-92805243D01*
X159367615Y-92977166D01*
X159377444Y-93007414D01*
X159473951Y-93196820D01*
X159598890Y-93368786D01*
X159712430Y-93482326D01*
X159745915Y-93543649D01*
X159740931Y-93613341D01*
X159699059Y-93669274D01*
X159668083Y-93686189D01*
X159536669Y-93735203D01*
X159536664Y-93735206D01*
X159421455Y-93821452D01*
X159421452Y-93821455D01*
X159335206Y-93936664D01*
X159335202Y-93936671D01*
X159284908Y-94071517D01*
X159279503Y-94121795D01*
X159278501Y-94131123D01*
X159278500Y-94131135D01*
X159278500Y-95926870D01*
X159278501Y-95926876D01*
X159284908Y-95986483D01*
X159335202Y-96121328D01*
X159335206Y-96121335D01*
X159421452Y-96236544D01*
X159421455Y-96236547D01*
X159536664Y-96322793D01*
X159536671Y-96322797D01*
X159671517Y-96373091D01*
X159671516Y-96373091D01*
X159678444Y-96373835D01*
X159731127Y-96379500D01*
X161526872Y-96379499D01*
X161586483Y-96373091D01*
X161721331Y-96322796D01*
X161836546Y-96236546D01*
X161922796Y-96121331D01*
X161973091Y-95986483D01*
X161979500Y-95926873D01*
X161979500Y-95766648D01*
X164428500Y-95766648D01*
X164428500Y-95971351D01*
X164460522Y-96173534D01*
X164523781Y-96368223D01*
X164568734Y-96456446D01*
X164615897Y-96549009D01*
X164616715Y-96550613D01*
X164737028Y-96716213D01*
X164881786Y-96860971D01*
X164993987Y-96942488D01*
X165047390Y-96981287D01*
X165126864Y-97021781D01*
X165229776Y-97074218D01*
X165229778Y-97074218D01*
X165229781Y-97074220D01*
X165283610Y-97091710D01*
X165424465Y-97137477D01*
X165525557Y-97153488D01*
X165626648Y-97169500D01*
X165626649Y-97169500D01*
X165831351Y-97169500D01*
X165831352Y-97169500D01*
X166033534Y-97137477D01*
X166228219Y-97074220D01*
X166410610Y-96981287D01*
X166503590Y-96913732D01*
X166576213Y-96860971D01*
X166576215Y-96860968D01*
X166576219Y-96860966D01*
X166720966Y-96716219D01*
X166720968Y-96716215D01*
X166720971Y-96716213D01*
X166828289Y-96568500D01*
X166841287Y-96550610D01*
X166934220Y-96368219D01*
X166997477Y-96173534D01*
X167029500Y-95971352D01*
X167029500Y-95766648D01*
X166997477Y-95564466D01*
X166934220Y-95369781D01*
X166934218Y-95369778D01*
X166934218Y-95369776D01*
X166900503Y-95303607D01*
X166841287Y-95187390D01*
X166833556Y-95176749D01*
X166720971Y-95021786D01*
X166576213Y-94877028D01*
X166410613Y-94756715D01*
X166410612Y-94756714D01*
X166410610Y-94756713D01*
X166353653Y-94727691D01*
X166228223Y-94663781D01*
X166033534Y-94600522D01*
X165858995Y-94572878D01*
X165831352Y-94568500D01*
X165626648Y-94568500D01*
X165602329Y-94572351D01*
X165424465Y-94600522D01*
X165229776Y-94663781D01*
X165047386Y-94756715D01*
X164881786Y-94877028D01*
X164737028Y-95021786D01*
X164616715Y-95187386D01*
X164523781Y-95369776D01*
X164460522Y-95564465D01*
X164428500Y-95766648D01*
X161979500Y-95766648D01*
X161979499Y-95021786D01*
X161979499Y-94131129D01*
X161979498Y-94131123D01*
X161979497Y-94131116D01*
X161973091Y-94071517D01*
X161953509Y-94019016D01*
X161922797Y-93936671D01*
X161922793Y-93936664D01*
X161836547Y-93821455D01*
X161836544Y-93821452D01*
X161721335Y-93735206D01*
X161721328Y-93735202D01*
X161589917Y-93686189D01*
X161533983Y-93644318D01*
X161509566Y-93578853D01*
X161524418Y-93510580D01*
X161545563Y-93482332D01*
X161659104Y-93368792D01*
X161784051Y-93196816D01*
X161880557Y-93007412D01*
X161946246Y-92805243D01*
X161979500Y-92595287D01*
X161979500Y-92382713D01*
X161946246Y-92172757D01*
X161880557Y-91970588D01*
X161784051Y-91781184D01*
X161784049Y-91781181D01*
X161784048Y-91781179D01*
X161659109Y-91609213D01*
X161508786Y-91458890D01*
X161336820Y-91333951D01*
X161336115Y-91333591D01*
X161328054Y-91329485D01*
X161277259Y-91281512D01*
X161260463Y-91213692D01*
X161282999Y-91147556D01*
X161328054Y-91108515D01*
X161336816Y-91104051D01*
X161464346Y-91011396D01*
X161508786Y-90979109D01*
X161508788Y-90979106D01*
X161508792Y-90979104D01*
X161659104Y-90828792D01*
X161659106Y-90828788D01*
X161659109Y-90828786D01*
X161727454Y-90734715D01*
X161784051Y-90656816D01*
X161802732Y-90620153D01*
X184308500Y-90620153D01*
X184308500Y-90777846D01*
X184339261Y-90932489D01*
X184339264Y-90932501D01*
X184399602Y-91078172D01*
X184399609Y-91078185D01*
X184487210Y-91209288D01*
X184487213Y-91209292D01*
X184589240Y-91311319D01*
X184622725Y-91372642D01*
X184617741Y-91442334D01*
X184589240Y-91486681D01*
X184487213Y-91588707D01*
X184487210Y-91588711D01*
X184399609Y-91719814D01*
X184399602Y-91719827D01*
X184339264Y-91865498D01*
X184339261Y-91865510D01*
X184308500Y-92020153D01*
X184308500Y-92177846D01*
X184339261Y-92332489D01*
X184339264Y-92332501D01*
X184399602Y-92478172D01*
X184399609Y-92478185D01*
X184487210Y-92609288D01*
X184487213Y-92609292D01*
X184598707Y-92720786D01*
X184598711Y-92720789D01*
X184729814Y-92808390D01*
X184729827Y-92808397D01*
X184822771Y-92846895D01*
X184875503Y-92868737D01*
X184930831Y-92879742D01*
X184992740Y-92912126D01*
X185027315Y-92972841D01*
X185028256Y-92977166D01*
X185039261Y-93032492D01*
X185039264Y-93032501D01*
X185099602Y-93178172D01*
X185099609Y-93178185D01*
X185187210Y-93309288D01*
X185187213Y-93309292D01*
X185298707Y-93420786D01*
X185298711Y-93420789D01*
X185429814Y-93508390D01*
X185429827Y-93508397D01*
X185575498Y-93568735D01*
X185575503Y-93568737D01*
X185730153Y-93599499D01*
X185730156Y-93599500D01*
X185730158Y-93599500D01*
X185887844Y-93599500D01*
X185887845Y-93599499D01*
X186042497Y-93568737D01*
X186162323Y-93519104D01*
X186188172Y-93508397D01*
X186188172Y-93508396D01*
X186188179Y-93508394D01*
X186319289Y-93420789D01*
X186319292Y-93420786D01*
X186421319Y-93318760D01*
X186482642Y-93285275D01*
X186552334Y-93290259D01*
X186596681Y-93318760D01*
X186698707Y-93420786D01*
X186698711Y-93420789D01*
X186829814Y-93508390D01*
X186829827Y-93508397D01*
X186975498Y-93568735D01*
X186975503Y-93568737D01*
X187130153Y-93599499D01*
X187130156Y-93599500D01*
X187130158Y-93599500D01*
X187287844Y-93599500D01*
X187287845Y-93599499D01*
X187442497Y-93568737D01*
X187562323Y-93519104D01*
X187588172Y-93508397D01*
X187588172Y-93508396D01*
X187588179Y-93508394D01*
X187719289Y-93420789D01*
X187830789Y-93309289D01*
X187918394Y-93178179D01*
X187978737Y-93032497D01*
X187989743Y-92977166D01*
X188022125Y-92915258D01*
X188082841Y-92880683D01*
X188087118Y-92879752D01*
X188142497Y-92868737D01*
X188288179Y-92808394D01*
X188419289Y-92720789D01*
X188530789Y-92609289D01*
X188618394Y-92478179D01*
X188678737Y-92332497D01*
X188709500Y-92177842D01*
X188709500Y-92020158D01*
X188709500Y-92020155D01*
X188709499Y-92020153D01*
X188699639Y-91970585D01*
X188678737Y-91865503D01*
X188645055Y-91784186D01*
X188618397Y-91719827D01*
X188618390Y-91719814D01*
X188530789Y-91588711D01*
X188530786Y-91588707D01*
X188428760Y-91486681D01*
X188395275Y-91425358D01*
X188400259Y-91355666D01*
X188428760Y-91311319D01*
X188530786Y-91209292D01*
X188530789Y-91209289D01*
X188618394Y-91078179D01*
X188678737Y-90932497D01*
X188709500Y-90777842D01*
X188709500Y-90620158D01*
X188709500Y-90620155D01*
X188709499Y-90620153D01*
X188705712Y-90601116D01*
X188678737Y-90465503D01*
X188654368Y-90406671D01*
X188618397Y-90319827D01*
X188618390Y-90319814D01*
X188530789Y-90188711D01*
X188530786Y-90188707D01*
X188419292Y-90077213D01*
X188419288Y-90077210D01*
X188288185Y-89989609D01*
X188288172Y-89989602D01*
X188142501Y-89929264D01*
X188142492Y-89929261D01*
X188087166Y-89918256D01*
X188025256Y-89885870D01*
X187990682Y-89825154D01*
X187989750Y-89820874D01*
X187978737Y-89765503D01*
X187961547Y-89724003D01*
X187918397Y-89619827D01*
X187918390Y-89619814D01*
X187830789Y-89488711D01*
X187830786Y-89488707D01*
X187719292Y-89377213D01*
X187719288Y-89377210D01*
X187588185Y-89289609D01*
X187588172Y-89289602D01*
X187442501Y-89229264D01*
X187442489Y-89229261D01*
X187287845Y-89198500D01*
X187287842Y-89198500D01*
X187130158Y-89198500D01*
X187130155Y-89198500D01*
X186975510Y-89229261D01*
X186975498Y-89229264D01*
X186829827Y-89289602D01*
X186829814Y-89289609D01*
X186698711Y-89377210D01*
X186698707Y-89377213D01*
X186596681Y-89479240D01*
X186535358Y-89512725D01*
X186465666Y-89507741D01*
X186421319Y-89479240D01*
X186319292Y-89377213D01*
X186319288Y-89377210D01*
X186188185Y-89289609D01*
X186188172Y-89289602D01*
X186042501Y-89229264D01*
X186042489Y-89229261D01*
X185887845Y-89198500D01*
X185887842Y-89198500D01*
X185730158Y-89198500D01*
X185730155Y-89198500D01*
X185575510Y-89229261D01*
X185575498Y-89229264D01*
X185429827Y-89289602D01*
X185429814Y-89289609D01*
X185298711Y-89377210D01*
X185298707Y-89377213D01*
X185187213Y-89488707D01*
X185187210Y-89488711D01*
X185099609Y-89619814D01*
X185099602Y-89619827D01*
X185039264Y-89765498D01*
X185039262Y-89765505D01*
X185028256Y-89820833D01*
X184995870Y-89882743D01*
X184935153Y-89917316D01*
X184930833Y-89918256D01*
X184875505Y-89929262D01*
X184875498Y-89929264D01*
X184729827Y-89989602D01*
X184729814Y-89989609D01*
X184598711Y-90077210D01*
X184598707Y-90077213D01*
X184487213Y-90188707D01*
X184487210Y-90188711D01*
X184399609Y-90319814D01*
X184399602Y-90319827D01*
X184339264Y-90465498D01*
X184339261Y-90465510D01*
X184308500Y-90620153D01*
X161802732Y-90620153D01*
X161880557Y-90467412D01*
X161946246Y-90265243D01*
X161979500Y-90055287D01*
X161979500Y-89842713D01*
X161946246Y-89632757D01*
X161880557Y-89430588D01*
X161784051Y-89241184D01*
X161784049Y-89241181D01*
X161784048Y-89241179D01*
X161659109Y-89069213D01*
X161508786Y-88918890D01*
X161336820Y-88793951D01*
X161336115Y-88793591D01*
X161328054Y-88789485D01*
X161277259Y-88741512D01*
X161260463Y-88673692D01*
X161282999Y-88607556D01*
X161328054Y-88568515D01*
X161336816Y-88564051D01*
X161361065Y-88546433D01*
X161508786Y-88439109D01*
X161508788Y-88439106D01*
X161508792Y-88439104D01*
X161659104Y-88288792D01*
X161659106Y-88288788D01*
X161659109Y-88288786D01*
X161784048Y-88116820D01*
X161784047Y-88116820D01*
X161784051Y-88116816D01*
X161880557Y-87927412D01*
X161946246Y-87725243D01*
X161979500Y-87515287D01*
X161979500Y-87302713D01*
X161946246Y-87092757D01*
X161880557Y-86890588D01*
X161784051Y-86701184D01*
X161784049Y-86701181D01*
X161784048Y-86701179D01*
X161659109Y-86529213D01*
X161508786Y-86378890D01*
X161336820Y-86253951D01*
X161147414Y-86157444D01*
X161147413Y-86157443D01*
X161147412Y-86157443D01*
X160945243Y-86091754D01*
X160945241Y-86091753D01*
X160945240Y-86091753D01*
X160783957Y-86066208D01*
X160735287Y-86058500D01*
X160522713Y-86058500D01*
X160474042Y-86066208D01*
X160312760Y-86091753D01*
X160110585Y-86157444D01*
X159921179Y-86253951D01*
X159749213Y-86378890D01*
X159598890Y-86529213D01*
X159473951Y-86701179D01*
X159377444Y-86890585D01*
X159311753Y-87092760D01*
X159278500Y-87302713D01*
X111409137Y-87302713D01*
X111370568Y-87184008D01*
X111263343Y-86973567D01*
X111124517Y-86782490D01*
X110957510Y-86615483D01*
X110766433Y-86476657D01*
X110555996Y-86369433D01*
X110331368Y-86296446D01*
X110098097Y-86259500D01*
X110098092Y-86259500D01*
X109861908Y-86259500D01*
X109861903Y-86259500D01*
X109628631Y-86296446D01*
X109404003Y-86369433D01*
X109193566Y-86476657D01*
X109137119Y-86517669D01*
X109002490Y-86615483D01*
X109002488Y-86615485D01*
X109002487Y-86615485D01*
X108835485Y-86782487D01*
X108835485Y-86782488D01*
X108835483Y-86782490D01*
X108775862Y-86864550D01*
X108696657Y-86973566D01*
X108589433Y-87184003D01*
X108516446Y-87408631D01*
X108479500Y-87641902D01*
X106400499Y-87641902D01*
X106400499Y-86712128D01*
X106394091Y-86652517D01*
X106380278Y-86615483D01*
X106343797Y-86517671D01*
X106343793Y-86517664D01*
X106257547Y-86402455D01*
X106257544Y-86402452D01*
X106142335Y-86316206D01*
X106142328Y-86316202D01*
X106007482Y-86265908D01*
X106007483Y-86265908D01*
X105947883Y-86259501D01*
X105947881Y-86259500D01*
X105947873Y-86259500D01*
X105947864Y-86259500D01*
X103852129Y-86259500D01*
X103852123Y-86259501D01*
X103792516Y-86265908D01*
X103657671Y-86316202D01*
X103657664Y-86316206D01*
X103542455Y-86402452D01*
X103542452Y-86402455D01*
X103456206Y-86517664D01*
X103456202Y-86517671D01*
X103405908Y-86652517D01*
X103399501Y-86712116D01*
X103399501Y-86712123D01*
X103399500Y-86712135D01*
X99631645Y-86712135D01*
X99629073Y-84646682D01*
X130429000Y-84646682D01*
X130429000Y-84851317D01*
X130461009Y-85053417D01*
X130524244Y-85248031D01*
X130617141Y-85430350D01*
X130617147Y-85430359D01*
X130649523Y-85474921D01*
X130649524Y-85474922D01*
X131329000Y-84795446D01*
X131329000Y-84801661D01*
X131356259Y-84903394D01*
X131408920Y-84994606D01*
X131483394Y-85069080D01*
X131574606Y-85121741D01*
X131676339Y-85149000D01*
X131682553Y-85149000D01*
X131003076Y-85828474D01*
X131047650Y-85860859D01*
X131229968Y-85953755D01*
X131424582Y-86016990D01*
X131626683Y-86049000D01*
X131831317Y-86049000D01*
X132033417Y-86016990D01*
X132228031Y-85953755D01*
X132410349Y-85860859D01*
X132454921Y-85828474D01*
X131775447Y-85149000D01*
X131781661Y-85149000D01*
X131883394Y-85121741D01*
X131974606Y-85069080D01*
X132049080Y-84994606D01*
X132101741Y-84903394D01*
X132129000Y-84801661D01*
X132129000Y-84795447D01*
X132808474Y-85474921D01*
X132840859Y-85430349D01*
X132933755Y-85248031D01*
X132996990Y-85053417D01*
X133029000Y-84851317D01*
X133029000Y-84646682D01*
X133028995Y-84646648D01*
X135428500Y-84646648D01*
X135428500Y-84851351D01*
X135460522Y-85053534D01*
X135523781Y-85248223D01*
X135565760Y-85330610D01*
X135616585Y-85430359D01*
X135616715Y-85430613D01*
X135737028Y-85596213D01*
X135881786Y-85740971D01*
X136002226Y-85828474D01*
X136047390Y-85861287D01*
X136157669Y-85917477D01*
X136229776Y-85954218D01*
X136229778Y-85954218D01*
X136229781Y-85954220D01*
X136334137Y-85988127D01*
X136424465Y-86017477D01*
X136525557Y-86033488D01*
X136626648Y-86049500D01*
X136626649Y-86049500D01*
X136831351Y-86049500D01*
X136831352Y-86049500D01*
X137033534Y-86017477D01*
X137228219Y-85954220D01*
X137410610Y-85861287D01*
X137503590Y-85793732D01*
X137576213Y-85740971D01*
X137576215Y-85740968D01*
X137576219Y-85740966D01*
X137720966Y-85596219D01*
X137720968Y-85596215D01*
X137720971Y-85596213D01*
X137773732Y-85523590D01*
X137841287Y-85430610D01*
X137934220Y-85248219D01*
X137997477Y-85053534D01*
X138029500Y-84851352D01*
X138029500Y-84646648D01*
X138013661Y-84546648D01*
X139628500Y-84546648D01*
X139628500Y-84751351D01*
X139660522Y-84953534D01*
X139723781Y-85148223D01*
X139816715Y-85330613D01*
X139937028Y-85496213D01*
X140081786Y-85640971D01*
X140219420Y-85740966D01*
X140247390Y-85761287D01*
X140363607Y-85820503D01*
X140429776Y-85854218D01*
X140429778Y-85854218D01*
X140429781Y-85854220D01*
X140534137Y-85888127D01*
X140624465Y-85917477D01*
X140725557Y-85933488D01*
X140826648Y-85949500D01*
X140826649Y-85949500D01*
X141031351Y-85949500D01*
X141031352Y-85949500D01*
X141233534Y-85917477D01*
X141428219Y-85854220D01*
X141610610Y-85761287D01*
X141703590Y-85693732D01*
X141776213Y-85640971D01*
X141776215Y-85640968D01*
X141776219Y-85640966D01*
X141920966Y-85496219D01*
X141920968Y-85496215D01*
X141920971Y-85496213D01*
X141973732Y-85423590D01*
X142041287Y-85330610D01*
X142134220Y-85148219D01*
X142197477Y-84953534D01*
X142229500Y-84751352D01*
X142229500Y-84546648D01*
X144628500Y-84546648D01*
X144628500Y-84751351D01*
X144660522Y-84953534D01*
X144723781Y-85148223D01*
X144816715Y-85330613D01*
X144937028Y-85496213D01*
X145081786Y-85640971D01*
X145219420Y-85740966D01*
X145247390Y-85761287D01*
X145363607Y-85820503D01*
X145429776Y-85854218D01*
X145429778Y-85854218D01*
X145429781Y-85854220D01*
X145534137Y-85888127D01*
X145624465Y-85917477D01*
X145725557Y-85933488D01*
X145826648Y-85949500D01*
X145826649Y-85949500D01*
X146031351Y-85949500D01*
X146031352Y-85949500D01*
X146233534Y-85917477D01*
X146428219Y-85854220D01*
X146610610Y-85761287D01*
X146703590Y-85693732D01*
X146776213Y-85640971D01*
X146776215Y-85640968D01*
X146776219Y-85640966D01*
X146920966Y-85496219D01*
X146920968Y-85496215D01*
X146920971Y-85496213D01*
X146973732Y-85423590D01*
X147041287Y-85330610D01*
X147134220Y-85148219D01*
X147197477Y-84953534D01*
X147229500Y-84751352D01*
X147229500Y-84546648D01*
X147213316Y-84444465D01*
X147197477Y-84344465D01*
X147134218Y-84149776D01*
X147092369Y-84067644D01*
X147041287Y-83967390D01*
X147015749Y-83932239D01*
X146920971Y-83801786D01*
X146776213Y-83657028D01*
X146610613Y-83536715D01*
X146610612Y-83536714D01*
X146610610Y-83536713D01*
X146522177Y-83491654D01*
X146428223Y-83443781D01*
X146233534Y-83380522D01*
X146058995Y-83352878D01*
X146031352Y-83348500D01*
X145826648Y-83348500D01*
X145802329Y-83352351D01*
X145624465Y-83380522D01*
X145429776Y-83443781D01*
X145247386Y-83536715D01*
X145081786Y-83657028D01*
X144937028Y-83801786D01*
X144816715Y-83967386D01*
X144723781Y-84149776D01*
X144660522Y-84344465D01*
X144628500Y-84546648D01*
X142229500Y-84546648D01*
X142213316Y-84444465D01*
X142197477Y-84344465D01*
X142134218Y-84149776D01*
X142092369Y-84067644D01*
X142041287Y-83967390D01*
X142015749Y-83932239D01*
X141920971Y-83801786D01*
X141776213Y-83657028D01*
X141610613Y-83536715D01*
X141610612Y-83536714D01*
X141610610Y-83536713D01*
X141522177Y-83491654D01*
X141428223Y-83443781D01*
X141233534Y-83380522D01*
X141058995Y-83352878D01*
X141031352Y-83348500D01*
X140826648Y-83348500D01*
X140802329Y-83352351D01*
X140624465Y-83380522D01*
X140429776Y-83443781D01*
X140247386Y-83536715D01*
X140081786Y-83657028D01*
X139937028Y-83801786D01*
X139816715Y-83967386D01*
X139723781Y-84149776D01*
X139660522Y-84344465D01*
X139628500Y-84546648D01*
X138013661Y-84546648D01*
X138006810Y-84503394D01*
X137997477Y-84444465D01*
X137964985Y-84344465D01*
X137934220Y-84249781D01*
X137934218Y-84249778D01*
X137934218Y-84249776D01*
X137841419Y-84067650D01*
X137841287Y-84067390D01*
X137809092Y-84023077D01*
X137720971Y-83901786D01*
X137576213Y-83757028D01*
X137410613Y-83636715D01*
X137410612Y-83636714D01*
X137410610Y-83636713D01*
X137353653Y-83607691D01*
X137228223Y-83543781D01*
X137033534Y-83480522D01*
X136852162Y-83451796D01*
X136831352Y-83448500D01*
X136626648Y-83448500D01*
X136605838Y-83451796D01*
X136424465Y-83480522D01*
X136229776Y-83543781D01*
X136047386Y-83636715D01*
X135881786Y-83757028D01*
X135737028Y-83901786D01*
X135616715Y-84067386D01*
X135523781Y-84249776D01*
X135460522Y-84444465D01*
X135428500Y-84646648D01*
X133028995Y-84646648D01*
X132996990Y-84444582D01*
X132933755Y-84249968D01*
X132840859Y-84067650D01*
X132808474Y-84023077D01*
X132808474Y-84023076D01*
X132129000Y-84702551D01*
X132129000Y-84696339D01*
X132101741Y-84594606D01*
X132049080Y-84503394D01*
X131974606Y-84428920D01*
X131883394Y-84376259D01*
X131781661Y-84349000D01*
X131775446Y-84349000D01*
X132454922Y-83669524D01*
X132454921Y-83669523D01*
X132410359Y-83637147D01*
X132410350Y-83637141D01*
X132228031Y-83544244D01*
X132033417Y-83481009D01*
X131831317Y-83449000D01*
X131626683Y-83449000D01*
X131424582Y-83481009D01*
X131229968Y-83544244D01*
X131047644Y-83637143D01*
X131003077Y-83669523D01*
X131003077Y-83669524D01*
X131682554Y-84349000D01*
X131676339Y-84349000D01*
X131574606Y-84376259D01*
X131483394Y-84428920D01*
X131408920Y-84503394D01*
X131356259Y-84594606D01*
X131329000Y-84696339D01*
X131329000Y-84702553D01*
X130649524Y-84023077D01*
X130649523Y-84023077D01*
X130617143Y-84067644D01*
X130524244Y-84249968D01*
X130461009Y-84444582D01*
X130429000Y-84646682D01*
X99629073Y-84646682D01*
X99625215Y-81548982D01*
X115448500Y-81548982D01*
X115448500Y-83349017D01*
X115459000Y-83451796D01*
X115514185Y-83618332D01*
X115514187Y-83618337D01*
X115525787Y-83637143D01*
X115606288Y-83767656D01*
X115730344Y-83891712D01*
X115879665Y-83983814D01*
X116046202Y-84038999D01*
X116148990Y-84049500D01*
X116148995Y-84049500D01*
X117949005Y-84049500D01*
X117949010Y-84049500D01*
X118051798Y-84038999D01*
X118218335Y-83983814D01*
X118367656Y-83891712D01*
X118491712Y-83767656D01*
X118583814Y-83618335D01*
X118638999Y-83451798D01*
X118649500Y-83349010D01*
X118649500Y-82323038D01*
X125608500Y-82323038D01*
X125608500Y-82574961D01*
X125647910Y-82823785D01*
X125725760Y-83063383D01*
X125840132Y-83287848D01*
X125988201Y-83491649D01*
X125988205Y-83491654D01*
X126166345Y-83669794D01*
X126166350Y-83669798D01*
X126344117Y-83798952D01*
X126370155Y-83817870D01*
X126513184Y-83890747D01*
X126594616Y-83932239D01*
X126594618Y-83932239D01*
X126594621Y-83932241D01*
X126834215Y-84010090D01*
X127083038Y-84049500D01*
X127083039Y-84049500D01*
X127334961Y-84049500D01*
X127334962Y-84049500D01*
X127583785Y-84010090D01*
X127823379Y-83932241D01*
X128047845Y-83817870D01*
X128251656Y-83669793D01*
X128429793Y-83491656D01*
X128577870Y-83287845D01*
X128692241Y-83063379D01*
X128770090Y-82823785D01*
X128809500Y-82574962D01*
X128809500Y-82323038D01*
X128770090Y-82074215D01*
X128692241Y-81834621D01*
X128692239Y-81834618D01*
X128692239Y-81834616D01*
X128638315Y-81728786D01*
X128577870Y-81610155D01*
X128500017Y-81502999D01*
X128429798Y-81406350D01*
X128429794Y-81406345D01*
X128251654Y-81228205D01*
X128251649Y-81228201D01*
X128141201Y-81147956D01*
X128047848Y-81080132D01*
X128047847Y-81080131D01*
X128047845Y-81080130D01*
X127972997Y-81041993D01*
X127823383Y-80965760D01*
X127583785Y-80887910D01*
X127334962Y-80848500D01*
X127083038Y-80848500D01*
X127016738Y-80859001D01*
X126834214Y-80887910D01*
X126594616Y-80965760D01*
X126370151Y-81080132D01*
X126166350Y-81228201D01*
X126166345Y-81228205D01*
X125988205Y-81406345D01*
X125988201Y-81406350D01*
X125840132Y-81610151D01*
X125725760Y-81834616D01*
X125647910Y-82074214D01*
X125608500Y-82323038D01*
X118649500Y-82323038D01*
X118649500Y-81548990D01*
X118638999Y-81446202D01*
X118583814Y-81279665D01*
X118491712Y-81130344D01*
X118367656Y-81006288D01*
X118218335Y-80914186D01*
X118051798Y-80859001D01*
X118051796Y-80859000D01*
X117949017Y-80848500D01*
X117949010Y-80848500D01*
X116148990Y-80848500D01*
X116148982Y-80848500D01*
X116046203Y-80859000D01*
X116046202Y-80859001D01*
X115963669Y-80886349D01*
X115879667Y-80914185D01*
X115879662Y-80914187D01*
X115730342Y-81006289D01*
X115606289Y-81130342D01*
X115514187Y-81279662D01*
X115514185Y-81279667D01*
X115502502Y-81314925D01*
X115459001Y-81446202D01*
X115459001Y-81446203D01*
X115459000Y-81446203D01*
X115448500Y-81548982D01*
X99625215Y-81548982D01*
X99623225Y-79951155D01*
X149859000Y-79951155D01*
X149859000Y-80599000D01*
X150775988Y-80599000D01*
X150743075Y-80656007D01*
X150709000Y-80783174D01*
X150709000Y-80914826D01*
X150743075Y-81041993D01*
X150775988Y-81099000D01*
X149859000Y-81099000D01*
X149859000Y-81746844D01*
X149865401Y-81806372D01*
X149865403Y-81806379D01*
X149915645Y-81941086D01*
X149915649Y-81941093D01*
X150001809Y-82056187D01*
X150001812Y-82056190D01*
X150116906Y-82142350D01*
X150116913Y-82142354D01*
X150251620Y-82192596D01*
X150251627Y-82192598D01*
X150311155Y-82198999D01*
X150311172Y-82199000D01*
X150959000Y-82199000D01*
X150959000Y-81282012D01*
X151016007Y-81314925D01*
X151143174Y-81349000D01*
X151274826Y-81349000D01*
X151401993Y-81314925D01*
X151459000Y-81282012D01*
X151459000Y-82199000D01*
X152106828Y-82199000D01*
X152106844Y-82198999D01*
X152166372Y-82192598D01*
X152166379Y-82192596D01*
X152301086Y-82142354D01*
X152301093Y-82142350D01*
X152416187Y-82056190D01*
X152416190Y-82056187D01*
X152502350Y-81941093D01*
X152502354Y-81941086D01*
X152551422Y-81809529D01*
X152593293Y-81753595D01*
X152658757Y-81729178D01*
X152727030Y-81744030D01*
X152755285Y-81765181D01*
X152869213Y-81879109D01*
X153041179Y-82004048D01*
X153041181Y-82004049D01*
X153041184Y-82004051D01*
X153230588Y-82100557D01*
X153432757Y-82166246D01*
X153642713Y-82199500D01*
X153642714Y-82199500D01*
X153855286Y-82199500D01*
X153855287Y-82199500D01*
X154065243Y-82166246D01*
X154267412Y-82100557D01*
X154456816Y-82004051D01*
X154543471Y-81941093D01*
X154628786Y-81879109D01*
X154628788Y-81879106D01*
X154628792Y-81879104D01*
X154779104Y-81728792D01*
X154779106Y-81728788D01*
X154779109Y-81728786D01*
X154904048Y-81556820D01*
X154904047Y-81556820D01*
X154904051Y-81556816D01*
X154908514Y-81548054D01*
X154956488Y-81497259D01*
X155024308Y-81480463D01*
X155090444Y-81502999D01*
X155129484Y-81548054D01*
X155129964Y-81548995D01*
X155133951Y-81556820D01*
X155258890Y-81728786D01*
X155409213Y-81879109D01*
X155581179Y-82004048D01*
X155581181Y-82004049D01*
X155581184Y-82004051D01*
X155770588Y-82100557D01*
X155972757Y-82166246D01*
X156182713Y-82199500D01*
X156182714Y-82199500D01*
X156395286Y-82199500D01*
X156395287Y-82199500D01*
X156605243Y-82166246D01*
X156807412Y-82100557D01*
X156996816Y-82004051D01*
X157083471Y-81941093D01*
X157168786Y-81879109D01*
X157168788Y-81879106D01*
X157168792Y-81879104D01*
X157319104Y-81728792D01*
X157319106Y-81728788D01*
X157319109Y-81728786D01*
X157444048Y-81556820D01*
X157444047Y-81556820D01*
X157444051Y-81556816D01*
X157448514Y-81548054D01*
X157496488Y-81497259D01*
X157564308Y-81480463D01*
X157630444Y-81502999D01*
X157669484Y-81548054D01*
X157669964Y-81548995D01*
X157673951Y-81556820D01*
X157798890Y-81728786D01*
X157949213Y-81879109D01*
X158121179Y-82004048D01*
X158121181Y-82004049D01*
X158121184Y-82004051D01*
X158310588Y-82100557D01*
X158512757Y-82166246D01*
X158722713Y-82199500D01*
X158722714Y-82199500D01*
X158935286Y-82199500D01*
X158935287Y-82199500D01*
X159145243Y-82166246D01*
X159347412Y-82100557D01*
X159536816Y-82004051D01*
X159623471Y-81941093D01*
X159708786Y-81879109D01*
X159708788Y-81879106D01*
X159708792Y-81879104D01*
X159859104Y-81728792D01*
X159859106Y-81728788D01*
X159859109Y-81728786D01*
X159984048Y-81556820D01*
X159984047Y-81556820D01*
X159984051Y-81556816D01*
X160080557Y-81367412D01*
X160146246Y-81165243D01*
X160179500Y-80955287D01*
X160179500Y-80742713D01*
X160146246Y-80532757D01*
X160080557Y-80330588D01*
X159984051Y-80141184D01*
X159984049Y-80141181D01*
X159984048Y-80141179D01*
X159859109Y-79969213D01*
X159708786Y-79818890D01*
X159536820Y-79693951D01*
X159347414Y-79597444D01*
X159347413Y-79597443D01*
X159347412Y-79597443D01*
X159145243Y-79531754D01*
X159145240Y-79531753D01*
X158983957Y-79506208D01*
X158935287Y-79498500D01*
X158722713Y-79498500D01*
X158674042Y-79506208D01*
X158512760Y-79531753D01*
X158310585Y-79597444D01*
X158121179Y-79693951D01*
X157949213Y-79818890D01*
X157798890Y-79969213D01*
X157673949Y-80141182D01*
X157669484Y-80149946D01*
X157621509Y-80200742D01*
X157553688Y-80217536D01*
X157487553Y-80194998D01*
X157448516Y-80149946D01*
X157444050Y-80141182D01*
X157319109Y-79969213D01*
X157168786Y-79818890D01*
X156996820Y-79693951D01*
X156807414Y-79597444D01*
X156807413Y-79597443D01*
X156807412Y-79597443D01*
X156605243Y-79531754D01*
X156605241Y-79531753D01*
X156605240Y-79531753D01*
X156443957Y-79506208D01*
X156395287Y-79498500D01*
X156182713Y-79498500D01*
X156134042Y-79506208D01*
X155972760Y-79531753D01*
X155770585Y-79597444D01*
X155581179Y-79693951D01*
X155409213Y-79818890D01*
X155258890Y-79969213D01*
X155133949Y-80141182D01*
X155129484Y-80149946D01*
X155081509Y-80200742D01*
X155013688Y-80217536D01*
X154947553Y-80194998D01*
X154908516Y-80149946D01*
X154904050Y-80141182D01*
X154779109Y-79969213D01*
X154628786Y-79818890D01*
X154456820Y-79693951D01*
X154267414Y-79597444D01*
X154267413Y-79597443D01*
X154267412Y-79597443D01*
X154065243Y-79531754D01*
X154065241Y-79531753D01*
X154065240Y-79531753D01*
X153903957Y-79506208D01*
X153855287Y-79498500D01*
X153642713Y-79498500D01*
X153594042Y-79506208D01*
X153432760Y-79531753D01*
X153230585Y-79597444D01*
X153041179Y-79693951D01*
X152869215Y-79818889D01*
X152755285Y-79932819D01*
X152693962Y-79966303D01*
X152624270Y-79961319D01*
X152568337Y-79919447D01*
X152551422Y-79888470D01*
X152502354Y-79756913D01*
X152502350Y-79756906D01*
X152416190Y-79641812D01*
X152416187Y-79641809D01*
X152301093Y-79555649D01*
X152301086Y-79555645D01*
X152166379Y-79505403D01*
X152166372Y-79505401D01*
X152106844Y-79499000D01*
X151459000Y-79499000D01*
X151459000Y-80415988D01*
X151401993Y-80383075D01*
X151274826Y-80349000D01*
X151143174Y-80349000D01*
X151016007Y-80383075D01*
X150959000Y-80415988D01*
X150959000Y-79499000D01*
X150311155Y-79499000D01*
X150251627Y-79505401D01*
X150251620Y-79505403D01*
X150116913Y-79555645D01*
X150116906Y-79555649D01*
X150001812Y-79641809D01*
X150001809Y-79641812D01*
X149915649Y-79756906D01*
X149915645Y-79756913D01*
X149865403Y-79891620D01*
X149865401Y-79891627D01*
X149859000Y-79951155D01*
X99623225Y-79951155D01*
X99622572Y-79426648D01*
X163648500Y-79426648D01*
X163648500Y-79631351D01*
X163680522Y-79833534D01*
X163743781Y-80028223D01*
X163801336Y-80141179D01*
X163828758Y-80194998D01*
X163836715Y-80210613D01*
X163957028Y-80376213D01*
X164101786Y-80520971D01*
X164209186Y-80599000D01*
X164267390Y-80641287D01*
X164383607Y-80700503D01*
X164449776Y-80734218D01*
X164449778Y-80734218D01*
X164449781Y-80734220D01*
X164554137Y-80768127D01*
X164644465Y-80797477D01*
X164745557Y-80813488D01*
X164846648Y-80829500D01*
X164846649Y-80829500D01*
X165051351Y-80829500D01*
X165051352Y-80829500D01*
X165253534Y-80797477D01*
X165448219Y-80734220D01*
X165630610Y-80641287D01*
X165767278Y-80541993D01*
X165796213Y-80520971D01*
X165796215Y-80520968D01*
X165796219Y-80520966D01*
X165940966Y-80376219D01*
X165940968Y-80376215D01*
X165940971Y-80376213D01*
X165993732Y-80303590D01*
X166061287Y-80210610D01*
X166154220Y-80028219D01*
X166217477Y-79833534D01*
X166249500Y-79631352D01*
X166249500Y-79426648D01*
X173808500Y-79426648D01*
X173808500Y-79631351D01*
X173840522Y-79833534D01*
X173903781Y-80028223D01*
X173961336Y-80141179D01*
X173988758Y-80194998D01*
X173996715Y-80210613D01*
X174117028Y-80376213D01*
X174261786Y-80520971D01*
X174369186Y-80599000D01*
X174427390Y-80641287D01*
X174543607Y-80700503D01*
X174609776Y-80734218D01*
X174609778Y-80734218D01*
X174609781Y-80734220D01*
X174714137Y-80768127D01*
X174804465Y-80797477D01*
X174905557Y-80813488D01*
X175006648Y-80829500D01*
X175006649Y-80829500D01*
X175211351Y-80829500D01*
X175211352Y-80829500D01*
X175413534Y-80797477D01*
X175608219Y-80734220D01*
X175790610Y-80641287D01*
X175927278Y-80541993D01*
X175956213Y-80520971D01*
X175956215Y-80520968D01*
X175956219Y-80520966D01*
X176100966Y-80376219D01*
X176100968Y-80376215D01*
X176100971Y-80376213D01*
X176153732Y-80303590D01*
X176221287Y-80210610D01*
X176314220Y-80028219D01*
X176377477Y-79833534D01*
X176409500Y-79631352D01*
X176409500Y-79426648D01*
X176377477Y-79224466D01*
X176314220Y-79029781D01*
X176314218Y-79029778D01*
X176314218Y-79029776D01*
X176280503Y-78963607D01*
X176221287Y-78847390D01*
X176213556Y-78836749D01*
X176100971Y-78681786D01*
X175956213Y-78537028D01*
X175790613Y-78416715D01*
X175790612Y-78416714D01*
X175790610Y-78416713D01*
X175733653Y-78387691D01*
X175608223Y-78323781D01*
X175413534Y-78260522D01*
X175238995Y-78232878D01*
X175211352Y-78228500D01*
X175006648Y-78228500D01*
X174982329Y-78232351D01*
X174804465Y-78260522D01*
X174609776Y-78323781D01*
X174427386Y-78416715D01*
X174261786Y-78537028D01*
X174117028Y-78681786D01*
X173996715Y-78847386D01*
X173903781Y-79029776D01*
X173840522Y-79224465D01*
X173808500Y-79426648D01*
X166249500Y-79426648D01*
X166217477Y-79224466D01*
X166154220Y-79029781D01*
X166154218Y-79029778D01*
X166154218Y-79029776D01*
X166120503Y-78963607D01*
X166061287Y-78847390D01*
X166053556Y-78836749D01*
X165940971Y-78681786D01*
X165796213Y-78537028D01*
X165630613Y-78416715D01*
X165630612Y-78416714D01*
X165630610Y-78416713D01*
X165573653Y-78387691D01*
X165448223Y-78323781D01*
X165253534Y-78260522D01*
X165078995Y-78232878D01*
X165051352Y-78228500D01*
X164846648Y-78228500D01*
X164822329Y-78232351D01*
X164644465Y-78260522D01*
X164449776Y-78323781D01*
X164267386Y-78416715D01*
X164101786Y-78537028D01*
X163957028Y-78681786D01*
X163836715Y-78847386D01*
X163743781Y-79029776D01*
X163680522Y-79224465D01*
X163648500Y-79426648D01*
X99622572Y-79426648D01*
X99620480Y-77746648D01*
X129748500Y-77746648D01*
X129748500Y-77951351D01*
X129780522Y-78153534D01*
X129843781Y-78348223D01*
X129936715Y-78530613D01*
X130057028Y-78696213D01*
X130201786Y-78840971D01*
X130356749Y-78953556D01*
X130367390Y-78961287D01*
X130483607Y-79020503D01*
X130549776Y-79054218D01*
X130549778Y-79054218D01*
X130549781Y-79054220D01*
X130654137Y-79088127D01*
X130744465Y-79117477D01*
X130845557Y-79133488D01*
X130946648Y-79149500D01*
X130946649Y-79149500D01*
X131151351Y-79149500D01*
X131151352Y-79149500D01*
X131353534Y-79117477D01*
X131548219Y-79054220D01*
X131730610Y-78961287D01*
X131823590Y-78893732D01*
X131896213Y-78840971D01*
X131896215Y-78840968D01*
X131896219Y-78840966D01*
X132040966Y-78696219D01*
X132040968Y-78696215D01*
X132040971Y-78696213D01*
X132093732Y-78623590D01*
X132161287Y-78530610D01*
X132254220Y-78348219D01*
X132317477Y-78153534D01*
X132349500Y-77951352D01*
X132349500Y-77746648D01*
X139908500Y-77746648D01*
X139908500Y-77951351D01*
X139940522Y-78153534D01*
X140003781Y-78348223D01*
X140096715Y-78530613D01*
X140217028Y-78696213D01*
X140361786Y-78840971D01*
X140516749Y-78953556D01*
X140527390Y-78961287D01*
X140643607Y-79020503D01*
X140709776Y-79054218D01*
X140709778Y-79054218D01*
X140709781Y-79054220D01*
X140814137Y-79088127D01*
X140904465Y-79117477D01*
X141005557Y-79133488D01*
X141106648Y-79149500D01*
X141106649Y-79149500D01*
X141311351Y-79149500D01*
X141311352Y-79149500D01*
X141513534Y-79117477D01*
X141708219Y-79054220D01*
X141890610Y-78961287D01*
X141983590Y-78893732D01*
X142056213Y-78840971D01*
X142056215Y-78840968D01*
X142056219Y-78840966D01*
X142200966Y-78696219D01*
X142200968Y-78696215D01*
X142200971Y-78696213D01*
X142253732Y-78623590D01*
X142321287Y-78530610D01*
X142414220Y-78348219D01*
X142477477Y-78153534D01*
X142509500Y-77951352D01*
X142509500Y-77746648D01*
X142477477Y-77544466D01*
X142414220Y-77349781D01*
X142414218Y-77349778D01*
X142414218Y-77349776D01*
X142380503Y-77283607D01*
X142321287Y-77167390D01*
X142284314Y-77116500D01*
X142200971Y-77001786D01*
X142056213Y-76857028D01*
X141890614Y-76736715D01*
X141802267Y-76691700D01*
X141708223Y-76643781D01*
X141513534Y-76580522D01*
X141338995Y-76552878D01*
X141311352Y-76548500D01*
X141106648Y-76548500D01*
X141082329Y-76552351D01*
X140904465Y-76580522D01*
X140709776Y-76643781D01*
X140527386Y-76736715D01*
X140361786Y-76857028D01*
X140217028Y-77001786D01*
X140096715Y-77167386D01*
X140003781Y-77349776D01*
X139940522Y-77544465D01*
X139908500Y-77746648D01*
X132349500Y-77746648D01*
X132317477Y-77544466D01*
X132254220Y-77349781D01*
X132254218Y-77349778D01*
X132254218Y-77349776D01*
X132220503Y-77283607D01*
X132161287Y-77167390D01*
X132124314Y-77116500D01*
X132040971Y-77001786D01*
X131896213Y-76857028D01*
X131730613Y-76736715D01*
X131730612Y-76736714D01*
X131730610Y-76736713D01*
X131673653Y-76707691D01*
X131548223Y-76643781D01*
X131353534Y-76580522D01*
X131178995Y-76552878D01*
X131151352Y-76548500D01*
X130946648Y-76548500D01*
X130922329Y-76552351D01*
X130744465Y-76580522D01*
X130549776Y-76643781D01*
X130367386Y-76736715D01*
X130201786Y-76857028D01*
X130057028Y-77001786D01*
X129936715Y-77167386D01*
X129843781Y-77349776D01*
X129780522Y-77544465D01*
X129748500Y-77746648D01*
X99620480Y-77746648D01*
X99615835Y-74016484D01*
X103878500Y-74016484D01*
X103878500Y-76416515D01*
X103889000Y-76519295D01*
X103889001Y-76519297D01*
X103896183Y-76540971D01*
X103944186Y-76685835D01*
X103944187Y-76685837D01*
X104036286Y-76835151D01*
X104036289Y-76835155D01*
X104160344Y-76959210D01*
X104160348Y-76959213D01*
X104309662Y-77051312D01*
X104309664Y-77051313D01*
X104309666Y-77051314D01*
X104476203Y-77106499D01*
X104578992Y-77117000D01*
X104578997Y-77117000D01*
X106979003Y-77117000D01*
X106979008Y-77117000D01*
X107081797Y-77106499D01*
X107248334Y-77051314D01*
X107397655Y-76959211D01*
X107521711Y-76835155D01*
X107613814Y-76685834D01*
X107668999Y-76519297D01*
X107679500Y-76416508D01*
X107679500Y-75091966D01*
X108879000Y-75091966D01*
X108879000Y-75341033D01*
X108911508Y-75587963D01*
X108975973Y-75828549D01*
X109071283Y-76058648D01*
X109071288Y-76058659D01*
X109195813Y-76274341D01*
X109195819Y-76274349D01*
X109270400Y-76371545D01*
X110177958Y-75463987D01*
X110202978Y-75524390D01*
X110274112Y-75630851D01*
X110364649Y-75721388D01*
X110471110Y-75792522D01*
X110531511Y-75817541D01*
X109623953Y-76725098D01*
X109721150Y-76799680D01*
X109721158Y-76799686D01*
X109936840Y-76924211D01*
X109936851Y-76924216D01*
X110166950Y-77019526D01*
X110407536Y-77083991D01*
X110654466Y-77116500D01*
X110903534Y-77116500D01*
X111150463Y-77083991D01*
X111391049Y-77019526D01*
X111621148Y-76924216D01*
X111621159Y-76924211D01*
X111836855Y-76799678D01*
X111934045Y-76725100D01*
X111934045Y-76725097D01*
X111026488Y-75817541D01*
X111086890Y-75792522D01*
X111193351Y-75721388D01*
X111283888Y-75630851D01*
X111355022Y-75524390D01*
X111380041Y-75463989D01*
X112287597Y-76371545D01*
X112287600Y-76371545D01*
X112362178Y-76274355D01*
X112486711Y-76058659D01*
X112486716Y-76058648D01*
X112582026Y-75828549D01*
X112646491Y-75587963D01*
X112665092Y-75446682D01*
X144429000Y-75446682D01*
X144429000Y-75651317D01*
X144461009Y-75853417D01*
X144524244Y-76048031D01*
X144617141Y-76230350D01*
X144617147Y-76230359D01*
X144649523Y-76274921D01*
X144649524Y-76274922D01*
X145329000Y-75595446D01*
X145329000Y-75601661D01*
X145356259Y-75703394D01*
X145408920Y-75794606D01*
X145483394Y-75869080D01*
X145574606Y-75921741D01*
X145676339Y-75949000D01*
X145682553Y-75949000D01*
X145003076Y-76628474D01*
X145047650Y-76660859D01*
X145229968Y-76753755D01*
X145424582Y-76816990D01*
X145626683Y-76849000D01*
X145831317Y-76849000D01*
X146033417Y-76816990D01*
X146228031Y-76753755D01*
X146410349Y-76660859D01*
X146454921Y-76628474D01*
X145775447Y-75949000D01*
X145781661Y-75949000D01*
X145883394Y-75921741D01*
X145974606Y-75869080D01*
X146049080Y-75794606D01*
X146101741Y-75703394D01*
X146129000Y-75601661D01*
X146129000Y-75595447D01*
X146808474Y-76274921D01*
X146840859Y-76230349D01*
X146933755Y-76048031D01*
X146996990Y-75853417D01*
X147029000Y-75651317D01*
X147029000Y-75446682D01*
X147028995Y-75446648D01*
X149428500Y-75446648D01*
X149428500Y-75651351D01*
X149460522Y-75853534D01*
X149523781Y-76048223D01*
X149529099Y-76058659D01*
X149616585Y-76230359D01*
X149616715Y-76230613D01*
X149737028Y-76396213D01*
X149881786Y-76540971D01*
X150023293Y-76643780D01*
X150047390Y-76661287D01*
X150163607Y-76720503D01*
X150229776Y-76754218D01*
X150229778Y-76754218D01*
X150229781Y-76754220D01*
X150334137Y-76788127D01*
X150424465Y-76817477D01*
X150525557Y-76833488D01*
X150626648Y-76849500D01*
X150626649Y-76849500D01*
X150831351Y-76849500D01*
X150831352Y-76849500D01*
X151033534Y-76817477D01*
X151228219Y-76754220D01*
X151410610Y-76661287D01*
X151521773Y-76580523D01*
X151576213Y-76540971D01*
X151576215Y-76540968D01*
X151576219Y-76540966D01*
X151720966Y-76396219D01*
X151720968Y-76396215D01*
X151720971Y-76396213D01*
X151773732Y-76323590D01*
X151841287Y-76230610D01*
X151934220Y-76048219D01*
X151997477Y-75853534D01*
X152029500Y-75651352D01*
X152029500Y-75446648D01*
X152012772Y-75341033D01*
X151997477Y-75244465D01*
X151947927Y-75091966D01*
X151934220Y-75049781D01*
X151934218Y-75049778D01*
X151934218Y-75049776D01*
X151900503Y-74983607D01*
X151841287Y-74867390D01*
X151809092Y-74823077D01*
X151720971Y-74701786D01*
X151576213Y-74557028D01*
X151410613Y-74436715D01*
X151410612Y-74436714D01*
X151410610Y-74436713D01*
X151337874Y-74399652D01*
X151228223Y-74343781D01*
X151033534Y-74280522D01*
X150858995Y-74252878D01*
X150831352Y-74248500D01*
X150626648Y-74248500D01*
X150602329Y-74252351D01*
X150424465Y-74280522D01*
X150229776Y-74343781D01*
X150047386Y-74436715D01*
X149881786Y-74557028D01*
X149737028Y-74701786D01*
X149616715Y-74867386D01*
X149523781Y-75049776D01*
X149460522Y-75244465D01*
X149428500Y-75446648D01*
X147028995Y-75446648D01*
X146996990Y-75244582D01*
X146933755Y-75049968D01*
X146840859Y-74867650D01*
X146808474Y-74823077D01*
X146808474Y-74823076D01*
X146129000Y-75502551D01*
X146129000Y-75496339D01*
X146101741Y-75394606D01*
X146049080Y-75303394D01*
X145974606Y-75228920D01*
X145883394Y-75176259D01*
X145781661Y-75149000D01*
X145775446Y-75149000D01*
X146454922Y-74469524D01*
X146454921Y-74469523D01*
X146410359Y-74437147D01*
X146410350Y-74437141D01*
X146228031Y-74344244D01*
X146033417Y-74281009D01*
X145831317Y-74249000D01*
X145626683Y-74249000D01*
X145424582Y-74281009D01*
X145229968Y-74344244D01*
X145047644Y-74437143D01*
X145003077Y-74469523D01*
X145003077Y-74469524D01*
X145682554Y-75149000D01*
X145676339Y-75149000D01*
X145574606Y-75176259D01*
X145483394Y-75228920D01*
X145408920Y-75303394D01*
X145356259Y-75394606D01*
X145329000Y-75496339D01*
X145329000Y-75502553D01*
X144649524Y-74823077D01*
X144649523Y-74823077D01*
X144617143Y-74867644D01*
X144524244Y-75049968D01*
X144461009Y-75244582D01*
X144429000Y-75446682D01*
X112665092Y-75446682D01*
X112667863Y-75425631D01*
X112679000Y-75341033D01*
X112679000Y-75091966D01*
X112646491Y-74845036D01*
X112582026Y-74604450D01*
X112486716Y-74374351D01*
X112486711Y-74374340D01*
X112362186Y-74158658D01*
X112362180Y-74158650D01*
X112287598Y-74061453D01*
X111380041Y-74969010D01*
X111355022Y-74908610D01*
X111283888Y-74802149D01*
X111193351Y-74711612D01*
X111086890Y-74640478D01*
X111026487Y-74615457D01*
X111934045Y-73707900D01*
X111836849Y-73633319D01*
X111836841Y-73633313D01*
X111621159Y-73508788D01*
X111621148Y-73508783D01*
X111391049Y-73413473D01*
X111150463Y-73349008D01*
X110903534Y-73316500D01*
X110654466Y-73316500D01*
X110407536Y-73349008D01*
X110166950Y-73413473D01*
X109936851Y-73508783D01*
X109936847Y-73508785D01*
X109721143Y-73633323D01*
X109623953Y-73707899D01*
X109623953Y-73707900D01*
X110531511Y-74615458D01*
X110471110Y-74640478D01*
X110364649Y-74711612D01*
X110274112Y-74802149D01*
X110202978Y-74908610D01*
X110177958Y-74969011D01*
X109270400Y-74061453D01*
X109270399Y-74061453D01*
X109195823Y-74158643D01*
X109071285Y-74374347D01*
X109071283Y-74374351D01*
X108975973Y-74604450D01*
X108911508Y-74845036D01*
X108879000Y-75091966D01*
X107679500Y-75091966D01*
X107679500Y-74016492D01*
X107668999Y-73913703D01*
X107613814Y-73747166D01*
X107589594Y-73707900D01*
X107521713Y-73597848D01*
X107521710Y-73597844D01*
X107397655Y-73473789D01*
X107397651Y-73473786D01*
X107248337Y-73381687D01*
X107248335Y-73381686D01*
X107165065Y-73354093D01*
X107081797Y-73326501D01*
X107081795Y-73326500D01*
X106979015Y-73316000D01*
X106979008Y-73316000D01*
X104578992Y-73316000D01*
X104578984Y-73316000D01*
X104476204Y-73326500D01*
X104476203Y-73326501D01*
X104309664Y-73381686D01*
X104309662Y-73381687D01*
X104160348Y-73473786D01*
X104160344Y-73473789D01*
X104036289Y-73597844D01*
X104036286Y-73597848D01*
X103944187Y-73747162D01*
X103944186Y-73747164D01*
X103889001Y-73913703D01*
X103889000Y-73913704D01*
X103878500Y-74016484D01*
X99615835Y-74016484D01*
X99613886Y-72451135D01*
X119503500Y-72451135D01*
X119503500Y-74046870D01*
X119503501Y-74046876D01*
X119509908Y-74106483D01*
X119560202Y-74241328D01*
X119560206Y-74241335D01*
X119646452Y-74356544D01*
X119646455Y-74356547D01*
X119761664Y-74442793D01*
X119761671Y-74442797D01*
X119896517Y-74493091D01*
X119896516Y-74493091D01*
X119903444Y-74493835D01*
X119956127Y-74499500D01*
X121101872Y-74499499D01*
X121161483Y-74493091D01*
X121296331Y-74442796D01*
X121297430Y-74441972D01*
X121298717Y-74441492D01*
X121304112Y-74438547D01*
X121304535Y-74439322D01*
X121362887Y-74417552D01*
X121419198Y-74426673D01*
X121499873Y-74460091D01*
X121665777Y-74493091D01*
X121697992Y-74499499D01*
X121697996Y-74499500D01*
X121697997Y-74499500D01*
X121900004Y-74499500D01*
X121900005Y-74499499D01*
X122098127Y-74460091D01*
X122284756Y-74382786D01*
X122365562Y-74328792D01*
X122432234Y-74307917D01*
X122499614Y-74326401D01*
X122503340Y-74328795D01*
X122583479Y-74382343D01*
X122583486Y-74382347D01*
X122770016Y-74459609D01*
X122770025Y-74459612D01*
X122819000Y-74469353D01*
X122819000Y-73614865D01*
X122819067Y-73610789D01*
X122819400Y-73600638D01*
X122824500Y-73575003D01*
X122824500Y-73534830D01*
X122838745Y-73549075D01*
X122924255Y-73598444D01*
X123019630Y-73624000D01*
X123118370Y-73624000D01*
X123213745Y-73598444D01*
X123299255Y-73549075D01*
X123319000Y-73529330D01*
X123319000Y-74469352D01*
X123367974Y-74459612D01*
X123367983Y-74459609D01*
X123506531Y-74402222D01*
X123554513Y-74382347D01*
X123554526Y-74382340D01*
X123722399Y-74270170D01*
X123722403Y-74270167D01*
X123865167Y-74127403D01*
X123865170Y-74127399D01*
X123977340Y-73959526D01*
X123977347Y-73959513D01*
X124054609Y-73772983D01*
X124054612Y-73772974D01*
X124093999Y-73574958D01*
X124094000Y-73574955D01*
X124094000Y-73499000D01*
X123349330Y-73499000D01*
X123369075Y-73479255D01*
X123418444Y-73393745D01*
X123444000Y-73298370D01*
X123444000Y-73199630D01*
X123418444Y-73104255D01*
X123385185Y-73046648D01*
X166628500Y-73046648D01*
X166628500Y-73251351D01*
X166660522Y-73453534D01*
X166723781Y-73648223D01*
X166774194Y-73747162D01*
X166810021Y-73817477D01*
X166816715Y-73830613D01*
X166937028Y-73996213D01*
X167081786Y-74140971D01*
X167219928Y-74241335D01*
X167247390Y-74261287D01*
X167363607Y-74320503D01*
X167429776Y-74354218D01*
X167429778Y-74354218D01*
X167429781Y-74354220D01*
X167516335Y-74382343D01*
X167624465Y-74417477D01*
X167725557Y-74433488D01*
X167826648Y-74449500D01*
X167826649Y-74449500D01*
X168031351Y-74449500D01*
X168031352Y-74449500D01*
X168233534Y-74417477D01*
X168428219Y-74354220D01*
X168610610Y-74261287D01*
X168751879Y-74158650D01*
X168776213Y-74140971D01*
X168776215Y-74140968D01*
X168776219Y-74140966D01*
X168920966Y-73996219D01*
X168920968Y-73996215D01*
X168920971Y-73996213D01*
X168980917Y-73913703D01*
X169041287Y-73830610D01*
X169134220Y-73648219D01*
X169197477Y-73453534D01*
X169229500Y-73251352D01*
X169229500Y-73046648D01*
X171628500Y-73046648D01*
X171628500Y-73251351D01*
X171660522Y-73453534D01*
X171723781Y-73648223D01*
X171774194Y-73747162D01*
X171810021Y-73817477D01*
X171816715Y-73830613D01*
X171937028Y-73996213D01*
X172081786Y-74140971D01*
X172219928Y-74241335D01*
X172247390Y-74261287D01*
X172363607Y-74320503D01*
X172429776Y-74354218D01*
X172429778Y-74354218D01*
X172429781Y-74354220D01*
X172516335Y-74382343D01*
X172624465Y-74417477D01*
X172725557Y-74433488D01*
X172826648Y-74449500D01*
X172826649Y-74449500D01*
X173031351Y-74449500D01*
X173031352Y-74449500D01*
X173233534Y-74417477D01*
X173428219Y-74354220D01*
X173610610Y-74261287D01*
X173751879Y-74158650D01*
X173776213Y-74140971D01*
X173776215Y-74140968D01*
X173776219Y-74140966D01*
X173920966Y-73996219D01*
X173920968Y-73996215D01*
X173920971Y-73996213D01*
X173980917Y-73913703D01*
X174041287Y-73830610D01*
X174134220Y-73648219D01*
X174197477Y-73453534D01*
X174229500Y-73251352D01*
X174229500Y-73046648D01*
X174197477Y-72844466D01*
X174134220Y-72649781D01*
X174134218Y-72649778D01*
X174134218Y-72649776D01*
X174056920Y-72498071D01*
X174056919Y-72498069D01*
X174041286Y-72467388D01*
X174026218Y-72446648D01*
X191128500Y-72446648D01*
X191128500Y-72651351D01*
X191160522Y-72853534D01*
X191223781Y-73048223D01*
X191316715Y-73230613D01*
X191437028Y-73396213D01*
X191581786Y-73540971D01*
X191729403Y-73648219D01*
X191747390Y-73661287D01*
X191838871Y-73707899D01*
X191929776Y-73754218D01*
X191929778Y-73754218D01*
X191929781Y-73754220D01*
X191987500Y-73772974D01*
X192124465Y-73817477D01*
X192207383Y-73830610D01*
X192326648Y-73849500D01*
X192326649Y-73849500D01*
X192531351Y-73849500D01*
X192531352Y-73849500D01*
X192733534Y-73817477D01*
X192928219Y-73754220D01*
X193110610Y-73661287D01*
X193229437Y-73574955D01*
X193276213Y-73540971D01*
X193276215Y-73540968D01*
X193276219Y-73540966D01*
X193420966Y-73396219D01*
X193420968Y-73396215D01*
X193420971Y-73396213D01*
X193526217Y-73251352D01*
X193541287Y-73230610D01*
X193634220Y-73048219D01*
X193697477Y-72853534D01*
X193729500Y-72651352D01*
X193729500Y-72446648D01*
X193697477Y-72244466D01*
X193692072Y-72227832D01*
X193656495Y-72118337D01*
X193634220Y-72049781D01*
X193634218Y-72049778D01*
X193634218Y-72049776D01*
X193580210Y-71943781D01*
X193541287Y-71867390D01*
X193483495Y-71787845D01*
X193420971Y-71701786D01*
X193276213Y-71557028D01*
X193110613Y-71436715D01*
X193110612Y-71436714D01*
X193110610Y-71436713D01*
X193053653Y-71407691D01*
X192928223Y-71343781D01*
X192733534Y-71280522D01*
X192558995Y-71252878D01*
X192531352Y-71248500D01*
X192326648Y-71248500D01*
X192302329Y-71252351D01*
X192124465Y-71280522D01*
X191929776Y-71343781D01*
X191747386Y-71436715D01*
X191581786Y-71557028D01*
X191437028Y-71701786D01*
X191316715Y-71867386D01*
X191223781Y-72049776D01*
X191160522Y-72244465D01*
X191128500Y-72446648D01*
X174026218Y-72446648D01*
X173920971Y-72301786D01*
X173776213Y-72157028D01*
X173610613Y-72036715D01*
X173610612Y-72036714D01*
X173610610Y-72036713D01*
X173522177Y-71991654D01*
X173428223Y-71943781D01*
X173233534Y-71880522D01*
X173058995Y-71852878D01*
X173031352Y-71848500D01*
X172826648Y-71848500D01*
X172802329Y-71852351D01*
X172624465Y-71880522D01*
X172429776Y-71943781D01*
X172247386Y-72036715D01*
X172081786Y-72157028D01*
X171937028Y-72301786D01*
X171816715Y-72467386D01*
X171723781Y-72649776D01*
X171660522Y-72844465D01*
X171628500Y-73046648D01*
X169229500Y-73046648D01*
X169197477Y-72844466D01*
X169134220Y-72649781D01*
X169134218Y-72649778D01*
X169134218Y-72649776D01*
X169083124Y-72549500D01*
X169041287Y-72467390D01*
X169015749Y-72432239D01*
X168920971Y-72301786D01*
X168776213Y-72157028D01*
X168610613Y-72036715D01*
X168610612Y-72036714D01*
X168610610Y-72036713D01*
X168522177Y-71991654D01*
X168428223Y-71943781D01*
X168233534Y-71880522D01*
X168058995Y-71852878D01*
X168031352Y-71848500D01*
X167826648Y-71848500D01*
X167802329Y-71852351D01*
X167624465Y-71880522D01*
X167429776Y-71943781D01*
X167247386Y-72036715D01*
X167081786Y-72157028D01*
X166937028Y-72301786D01*
X166816715Y-72467386D01*
X166723781Y-72649776D01*
X166660522Y-72844465D01*
X166628500Y-73046648D01*
X123385185Y-73046648D01*
X123369075Y-73018745D01*
X123349330Y-72999000D01*
X124094000Y-72999000D01*
X124094000Y-72923045D01*
X124093999Y-72923041D01*
X124054612Y-72725025D01*
X124054609Y-72725016D01*
X123977347Y-72538486D01*
X123977340Y-72538473D01*
X123865170Y-72370600D01*
X123865167Y-72370596D01*
X123722403Y-72227832D01*
X123722399Y-72227829D01*
X123554526Y-72115659D01*
X123554513Y-72115652D01*
X123367984Y-72038390D01*
X123367977Y-72038388D01*
X123319000Y-72028645D01*
X123319000Y-72968670D01*
X123299255Y-72948925D01*
X123213745Y-72899556D01*
X123118370Y-72874000D01*
X123019630Y-72874000D01*
X122924255Y-72899556D01*
X122838745Y-72948925D01*
X122824500Y-72963170D01*
X122824500Y-72922997D01*
X122821383Y-72907326D01*
X122819000Y-72883134D01*
X122819000Y-72028646D01*
X122818999Y-72028645D01*
X122770022Y-72038388D01*
X122770015Y-72038390D01*
X122583481Y-72115654D01*
X122583479Y-72115655D01*
X122503337Y-72169204D01*
X122436660Y-72190081D01*
X122369280Y-72171596D01*
X122365558Y-72169204D01*
X122284754Y-72115212D01*
X122098127Y-72037909D01*
X122098119Y-72037907D01*
X121900007Y-71998500D01*
X121900003Y-71998500D01*
X121697997Y-71998500D01*
X121697992Y-71998500D01*
X121499880Y-72037907D01*
X121499868Y-72037910D01*
X121419198Y-72071325D01*
X121349729Y-72078794D01*
X121304342Y-72059036D01*
X121304114Y-72059454D01*
X121299447Y-72056905D01*
X121297432Y-72056028D01*
X121296331Y-72055204D01*
X121296330Y-72055203D01*
X121296328Y-72055202D01*
X121161482Y-72004908D01*
X121161483Y-72004908D01*
X121101883Y-71998501D01*
X121101881Y-71998500D01*
X121101873Y-71998500D01*
X121101864Y-71998500D01*
X119956129Y-71998500D01*
X119956123Y-71998501D01*
X119896516Y-72004908D01*
X119761671Y-72055202D01*
X119761664Y-72055206D01*
X119646455Y-72141452D01*
X119646452Y-72141455D01*
X119560206Y-72256664D01*
X119560202Y-72256671D01*
X119509908Y-72391517D01*
X119503501Y-72451116D01*
X119503500Y-72451135D01*
X99613886Y-72451135D01*
X99611858Y-70823038D01*
X129048500Y-70823038D01*
X129048500Y-71074961D01*
X129087910Y-71323785D01*
X129165760Y-71563383D01*
X129280132Y-71787848D01*
X129428201Y-71991649D01*
X129428205Y-71991654D01*
X129606345Y-72169794D01*
X129606350Y-72169798D01*
X129784117Y-72298952D01*
X129810155Y-72317870D01*
X129913636Y-72370596D01*
X130034616Y-72432239D01*
X130034618Y-72432239D01*
X130034621Y-72432241D01*
X130274215Y-72510090D01*
X130523038Y-72549500D01*
X130523039Y-72549500D01*
X130774961Y-72549500D01*
X130774962Y-72549500D01*
X131023785Y-72510090D01*
X131263379Y-72432241D01*
X131487845Y-72317870D01*
X131691656Y-72169793D01*
X131869793Y-71991656D01*
X132017870Y-71787845D01*
X132132241Y-71563379D01*
X132210090Y-71323785D01*
X132249500Y-71074962D01*
X132249500Y-70823038D01*
X132210090Y-70574215D01*
X132132241Y-70334621D01*
X132132239Y-70334618D01*
X132132239Y-70334616D01*
X132071905Y-70216206D01*
X132017870Y-70110155D01*
X131973431Y-70048990D01*
X131973425Y-70048982D01*
X139208500Y-70048982D01*
X139208500Y-71849017D01*
X139219000Y-71951796D01*
X139274185Y-72118332D01*
X139274187Y-72118337D01*
X139298052Y-72157028D01*
X139366288Y-72267656D01*
X139490344Y-72391712D01*
X139639665Y-72483814D01*
X139806202Y-72538999D01*
X139908990Y-72549500D01*
X139908995Y-72549500D01*
X141709005Y-72549500D01*
X141709010Y-72549500D01*
X141811798Y-72538999D01*
X141978335Y-72483814D01*
X142127656Y-72391712D01*
X142251712Y-72267656D01*
X142343814Y-72118335D01*
X142398999Y-71951798D01*
X142409500Y-71849010D01*
X142409500Y-70048990D01*
X142398999Y-69946202D01*
X142343814Y-69779665D01*
X142251712Y-69630344D01*
X142127656Y-69506288D01*
X142030964Y-69446648D01*
X144328500Y-69446648D01*
X144328500Y-69651351D01*
X144360522Y-69853534D01*
X144423781Y-70048223D01*
X144487691Y-70173653D01*
X144516585Y-70230359D01*
X144516715Y-70230613D01*
X144637028Y-70396213D01*
X144781786Y-70540971D01*
X144902226Y-70628474D01*
X144947390Y-70661287D01*
X145063607Y-70720503D01*
X145129776Y-70754218D01*
X145129778Y-70754218D01*
X145129781Y-70754220D01*
X145234137Y-70788127D01*
X145324465Y-70817477D01*
X145359576Y-70823038D01*
X145526648Y-70849500D01*
X145526649Y-70849500D01*
X145731351Y-70849500D01*
X145731352Y-70849500D01*
X145933534Y-70817477D01*
X146128219Y-70754220D01*
X146310610Y-70661287D01*
X146403590Y-70593732D01*
X146476213Y-70540971D01*
X146476215Y-70540968D01*
X146476219Y-70540966D01*
X146620966Y-70396219D01*
X146620968Y-70396215D01*
X146620971Y-70396213D01*
X146673732Y-70323590D01*
X146741287Y-70230610D01*
X146834220Y-70048219D01*
X146897477Y-69853534D01*
X146929500Y-69651352D01*
X146929500Y-69446682D01*
X149329000Y-69446682D01*
X149329000Y-69651317D01*
X149361009Y-69853417D01*
X149424244Y-70048031D01*
X149517141Y-70230350D01*
X149517147Y-70230359D01*
X149549523Y-70274921D01*
X149549524Y-70274922D01*
X150229000Y-69595446D01*
X150229000Y-69601661D01*
X150256259Y-69703394D01*
X150308920Y-69794606D01*
X150383394Y-69869080D01*
X150474606Y-69921741D01*
X150576339Y-69949000D01*
X150582553Y-69949000D01*
X149903076Y-70628474D01*
X149947650Y-70660859D01*
X150129968Y-70753755D01*
X150324582Y-70816990D01*
X150526683Y-70849000D01*
X150731317Y-70849000D01*
X150933417Y-70816990D01*
X151128031Y-70753755D01*
X151310349Y-70660859D01*
X151354921Y-70628474D01*
X150675447Y-69949000D01*
X150681661Y-69949000D01*
X150783394Y-69921741D01*
X150874606Y-69869080D01*
X150949080Y-69794606D01*
X151001741Y-69703394D01*
X151029000Y-69601661D01*
X151029000Y-69595447D01*
X151708474Y-70274921D01*
X151740859Y-70230349D01*
X151833755Y-70048031D01*
X151896990Y-69853417D01*
X151929000Y-69651317D01*
X151929000Y-69446682D01*
X151896990Y-69244582D01*
X151843544Y-69080095D01*
X151833755Y-69049968D01*
X151832063Y-69046648D01*
X153848500Y-69046648D01*
X153848500Y-69251351D01*
X153880522Y-69453534D01*
X153943781Y-69648223D01*
X154036715Y-69830613D01*
X154157028Y-69996213D01*
X154301786Y-70140971D01*
X154456749Y-70253556D01*
X154467390Y-70261287D01*
X154583607Y-70320503D01*
X154649776Y-70354218D01*
X154649778Y-70354218D01*
X154649781Y-70354220D01*
X154754137Y-70388127D01*
X154844465Y-70417477D01*
X154945557Y-70433488D01*
X155046648Y-70449500D01*
X155046649Y-70449500D01*
X155251351Y-70449500D01*
X155251352Y-70449500D01*
X155453534Y-70417477D01*
X155648219Y-70354220D01*
X155830610Y-70261287D01*
X155923590Y-70193732D01*
X155996213Y-70140971D01*
X155996215Y-70140968D01*
X155996219Y-70140966D01*
X156140966Y-69996219D01*
X156140968Y-69996215D01*
X156140971Y-69996213D01*
X156233337Y-69869080D01*
X156261287Y-69830610D01*
X156352624Y-69651351D01*
X156354218Y-69648223D01*
X156354218Y-69648222D01*
X156354220Y-69648219D01*
X156417477Y-69453534D01*
X156449500Y-69251352D01*
X156449500Y-69046648D01*
X164008500Y-69046648D01*
X164008500Y-69251351D01*
X164040522Y-69453534D01*
X164103781Y-69648223D01*
X164196715Y-69830613D01*
X164317028Y-69996213D01*
X164461786Y-70140971D01*
X164616749Y-70253556D01*
X164627390Y-70261287D01*
X164743607Y-70320503D01*
X164809776Y-70354218D01*
X164809778Y-70354218D01*
X164809781Y-70354220D01*
X164914137Y-70388127D01*
X165004465Y-70417477D01*
X165105557Y-70433488D01*
X165206648Y-70449500D01*
X165206649Y-70449500D01*
X165411351Y-70449500D01*
X165411352Y-70449500D01*
X165613534Y-70417477D01*
X165808219Y-70354220D01*
X165990610Y-70261287D01*
X166083590Y-70193732D01*
X166156213Y-70140971D01*
X166156215Y-70140968D01*
X166156219Y-70140966D01*
X166300966Y-69996219D01*
X166300968Y-69996215D01*
X166300971Y-69996213D01*
X166393337Y-69869080D01*
X166421287Y-69830610D01*
X166512624Y-69651351D01*
X166514218Y-69648223D01*
X166514218Y-69648222D01*
X166514220Y-69648219D01*
X166577477Y-69453534D01*
X166609500Y-69251352D01*
X166609500Y-69046648D01*
X166577477Y-68844465D01*
X166522413Y-68674996D01*
X166514220Y-68649781D01*
X166514218Y-68649778D01*
X166514218Y-68649776D01*
X166459759Y-68542896D01*
X166421287Y-68467390D01*
X166408920Y-68450368D01*
X166300971Y-68301786D01*
X166156217Y-68157032D01*
X166156212Y-68157028D01*
X166045196Y-68076370D01*
X166045173Y-68076355D01*
X165990609Y-68036712D01*
X165881077Y-67980902D01*
X179178500Y-67980902D01*
X179178500Y-68217097D01*
X179215446Y-68450368D01*
X179288433Y-68674996D01*
X179363885Y-68823077D01*
X179395657Y-68885433D01*
X179534483Y-69076510D01*
X179701490Y-69243517D01*
X179892567Y-69382343D01*
X179991991Y-69433002D01*
X180103003Y-69489566D01*
X180103005Y-69489566D01*
X180103008Y-69489568D01*
X180154467Y-69506288D01*
X180327631Y-69562553D01*
X180560903Y-69599500D01*
X180560908Y-69599500D01*
X180797097Y-69599500D01*
X181030368Y-69562553D01*
X181254992Y-69489568D01*
X181465433Y-69382343D01*
X181656510Y-69243517D01*
X181823517Y-69076510D01*
X181962343Y-68885433D01*
X182069568Y-68674992D01*
X182142553Y-68450368D01*
X182144716Y-68436713D01*
X182179500Y-68217097D01*
X182179500Y-67980902D01*
X185678500Y-67980902D01*
X185678500Y-68217097D01*
X185715446Y-68450368D01*
X185788433Y-68674996D01*
X185863885Y-68823077D01*
X185895657Y-68885433D01*
X186034483Y-69076510D01*
X186201490Y-69243517D01*
X186392567Y-69382343D01*
X186491991Y-69433002D01*
X186603003Y-69489566D01*
X186603005Y-69489566D01*
X186603008Y-69489568D01*
X186654467Y-69506288D01*
X186827631Y-69562553D01*
X187060903Y-69599500D01*
X187060908Y-69599500D01*
X187297097Y-69599500D01*
X187530368Y-69562553D01*
X187754992Y-69489568D01*
X187965433Y-69382343D01*
X188156510Y-69243517D01*
X188323517Y-69076510D01*
X188462343Y-68885433D01*
X188569568Y-68674992D01*
X188637022Y-68467390D01*
X188642552Y-68450372D01*
X188642552Y-68450371D01*
X188642553Y-68450368D01*
X188670341Y-68274921D01*
X188679500Y-68217097D01*
X188679500Y-67980902D01*
X188642553Y-67747631D01*
X188595124Y-67601661D01*
X188569568Y-67523008D01*
X188569565Y-67523004D01*
X188569565Y-67523001D01*
X188556883Y-67498112D01*
X188556882Y-67498111D01*
X188530678Y-67446682D01*
X191129000Y-67446682D01*
X191129000Y-67651317D01*
X191161009Y-67853417D01*
X191224244Y-68048031D01*
X191317141Y-68230350D01*
X191317147Y-68230359D01*
X191349523Y-68274921D01*
X191349524Y-68274922D01*
X192029000Y-67595446D01*
X192029000Y-67601661D01*
X192056259Y-67703394D01*
X192108920Y-67794606D01*
X192183394Y-67869080D01*
X192274606Y-67921741D01*
X192376339Y-67949000D01*
X192382553Y-67949000D01*
X191703076Y-68628474D01*
X191747650Y-68660859D01*
X191929968Y-68753755D01*
X192124582Y-68816990D01*
X192326683Y-68849000D01*
X192531317Y-68849000D01*
X192733417Y-68816990D01*
X192928031Y-68753755D01*
X193110349Y-68660859D01*
X193154921Y-68628474D01*
X192475447Y-67949000D01*
X192481661Y-67949000D01*
X192583394Y-67921741D01*
X192674606Y-67869080D01*
X192749080Y-67794606D01*
X192801741Y-67703394D01*
X192829000Y-67601661D01*
X192829000Y-67595448D01*
X193508474Y-68274922D01*
X193508474Y-68274921D01*
X193540859Y-68230349D01*
X193633755Y-68048031D01*
X193696990Y-67853417D01*
X193729000Y-67651317D01*
X193729000Y-67446682D01*
X193696990Y-67244582D01*
X193633755Y-67049968D01*
X193540859Y-66867650D01*
X193508474Y-66823077D01*
X193508474Y-66823076D01*
X192829000Y-67502551D01*
X192829000Y-67496339D01*
X192801741Y-67394606D01*
X192749080Y-67303394D01*
X192674606Y-67228920D01*
X192583394Y-67176259D01*
X192481661Y-67149000D01*
X192475446Y-67149000D01*
X193154922Y-66469524D01*
X193154921Y-66469523D01*
X193110359Y-66437147D01*
X193110350Y-66437141D01*
X192928031Y-66344244D01*
X192733417Y-66281009D01*
X192531317Y-66249000D01*
X192326683Y-66249000D01*
X192124582Y-66281009D01*
X191929968Y-66344244D01*
X191747644Y-66437143D01*
X191703077Y-66469523D01*
X191703077Y-66469524D01*
X192382554Y-67149000D01*
X192376339Y-67149000D01*
X192274606Y-67176259D01*
X192183394Y-67228920D01*
X192108920Y-67303394D01*
X192056259Y-67394606D01*
X192029000Y-67496339D01*
X192029000Y-67502553D01*
X191349524Y-66823077D01*
X191349523Y-66823077D01*
X191317143Y-66867644D01*
X191224244Y-67049968D01*
X191161009Y-67244582D01*
X191129000Y-67446682D01*
X188530678Y-67446682D01*
X188462342Y-67312566D01*
X188455678Y-67303394D01*
X188323517Y-67121490D01*
X188156510Y-66954483D01*
X187965433Y-66815657D01*
X187754996Y-66708433D01*
X187530368Y-66635446D01*
X187297097Y-66598500D01*
X187297092Y-66598500D01*
X187060908Y-66598500D01*
X187060903Y-66598500D01*
X186827631Y-66635446D01*
X186603003Y-66708433D01*
X186392566Y-66815657D01*
X186321013Y-66867644D01*
X186201490Y-66954483D01*
X186201488Y-66954485D01*
X186201487Y-66954485D01*
X186034485Y-67121487D01*
X186034485Y-67121488D01*
X186034483Y-67121490D01*
X186014496Y-67149000D01*
X185895657Y-67312566D01*
X185788433Y-67523003D01*
X185715446Y-67747631D01*
X185678500Y-67980902D01*
X182179500Y-67980902D01*
X182142553Y-67747631D01*
X182095124Y-67601661D01*
X182069568Y-67523008D01*
X182069566Y-67523005D01*
X182069566Y-67523003D01*
X181962342Y-67312566D01*
X181955678Y-67303394D01*
X181823517Y-67121490D01*
X181656510Y-66954483D01*
X181465433Y-66815657D01*
X181254996Y-66708433D01*
X181030368Y-66635446D01*
X180797097Y-66598500D01*
X180797092Y-66598500D01*
X180560908Y-66598500D01*
X180560903Y-66598500D01*
X180327631Y-66635446D01*
X180103003Y-66708433D01*
X179892566Y-66815657D01*
X179821013Y-66867644D01*
X179701490Y-66954483D01*
X179701488Y-66954485D01*
X179701487Y-66954485D01*
X179534485Y-67121487D01*
X179534485Y-67121488D01*
X179534483Y-67121490D01*
X179514496Y-67149000D01*
X179395657Y-67312566D01*
X179288433Y-67523003D01*
X179215446Y-67747631D01*
X179178500Y-67980902D01*
X165881077Y-67980902D01*
X165808223Y-67943781D01*
X165613534Y-67880522D01*
X165438995Y-67852878D01*
X165411352Y-67848500D01*
X165206648Y-67848500D01*
X165182329Y-67852351D01*
X165004465Y-67880522D01*
X164809776Y-67943781D01*
X164627386Y-68036715D01*
X164461786Y-68157028D01*
X164317028Y-68301786D01*
X164196715Y-68467386D01*
X164103781Y-68649776D01*
X164040522Y-68844465D01*
X164008500Y-69046648D01*
X156449500Y-69046648D01*
X156417477Y-68844465D01*
X156362413Y-68674996D01*
X156354220Y-68649781D01*
X156354218Y-68649778D01*
X156354218Y-68649776D01*
X156299759Y-68542896D01*
X156261287Y-68467390D01*
X156248920Y-68450368D01*
X156140971Y-68301786D01*
X155996213Y-68157028D01*
X155830613Y-68036715D01*
X155830612Y-68036714D01*
X155830610Y-68036713D01*
X155773653Y-68007691D01*
X155648223Y-67943781D01*
X155453534Y-67880522D01*
X155278995Y-67852878D01*
X155251352Y-67848500D01*
X155046648Y-67848500D01*
X155022329Y-67852351D01*
X154844465Y-67880522D01*
X154649776Y-67943781D01*
X154467386Y-68036715D01*
X154301786Y-68157028D01*
X154157028Y-68301786D01*
X154036715Y-68467386D01*
X153943781Y-68649776D01*
X153880522Y-68844465D01*
X153848500Y-69046648D01*
X151832063Y-69046648D01*
X151740859Y-68867650D01*
X151708474Y-68823077D01*
X151708474Y-68823076D01*
X151029000Y-69502551D01*
X151029000Y-69496339D01*
X151001741Y-69394606D01*
X150949080Y-69303394D01*
X150874606Y-69228920D01*
X150783394Y-69176259D01*
X150681661Y-69149000D01*
X150675446Y-69149000D01*
X151354922Y-68469524D01*
X151354921Y-68469523D01*
X151310359Y-68437147D01*
X151310350Y-68437141D01*
X151128031Y-68344244D01*
X150933417Y-68281009D01*
X150731317Y-68249000D01*
X150526683Y-68249000D01*
X150324582Y-68281009D01*
X150129968Y-68344244D01*
X149947644Y-68437143D01*
X149903077Y-68469523D01*
X149903077Y-68469524D01*
X150582554Y-69149000D01*
X150576339Y-69149000D01*
X150474606Y-69176259D01*
X150383394Y-69228920D01*
X150308920Y-69303394D01*
X150256259Y-69394606D01*
X150229000Y-69496339D01*
X150229000Y-69502553D01*
X149549524Y-68823077D01*
X149549523Y-68823077D01*
X149517143Y-68867644D01*
X149424244Y-69049968D01*
X149361009Y-69244582D01*
X149329000Y-69446682D01*
X146929500Y-69446682D01*
X146929500Y-69446648D01*
X146913955Y-69348500D01*
X146897477Y-69244465D01*
X146866458Y-69149000D01*
X146834220Y-69049781D01*
X146834218Y-69049778D01*
X146834218Y-69049776D01*
X146800503Y-68983607D01*
X146741287Y-68867390D01*
X146709092Y-68823077D01*
X146620971Y-68701786D01*
X146476213Y-68557028D01*
X146310613Y-68436715D01*
X146310612Y-68436714D01*
X146310610Y-68436713D01*
X146253653Y-68407691D01*
X146128223Y-68343781D01*
X145933534Y-68280522D01*
X145758995Y-68252878D01*
X145731352Y-68248500D01*
X145526648Y-68248500D01*
X145502329Y-68252351D01*
X145324465Y-68280522D01*
X145129776Y-68343781D01*
X144947386Y-68436715D01*
X144781786Y-68557028D01*
X144637028Y-68701786D01*
X144516715Y-68867386D01*
X144423781Y-69049776D01*
X144360522Y-69244465D01*
X144328500Y-69446648D01*
X142030964Y-69446648D01*
X141978335Y-69414186D01*
X141811798Y-69359001D01*
X141811796Y-69359000D01*
X141709017Y-69348500D01*
X141709010Y-69348500D01*
X139908990Y-69348500D01*
X139908982Y-69348500D01*
X139806203Y-69359000D01*
X139806202Y-69359001D01*
X139735764Y-69382342D01*
X139639667Y-69414185D01*
X139639662Y-69414187D01*
X139490342Y-69506289D01*
X139366289Y-69630342D01*
X139274187Y-69779662D01*
X139274186Y-69779665D01*
X139219001Y-69946202D01*
X139219001Y-69946203D01*
X139219000Y-69946203D01*
X139208500Y-70048982D01*
X131973425Y-70048982D01*
X131869798Y-69906350D01*
X131869794Y-69906345D01*
X131691654Y-69728205D01*
X131691649Y-69728201D01*
X131487848Y-69580132D01*
X131487847Y-69580131D01*
X131487845Y-69580130D01*
X131417747Y-69544413D01*
X131263383Y-69465760D01*
X131023785Y-69387910D01*
X130774962Y-69348500D01*
X130523038Y-69348500D01*
X130456738Y-69359001D01*
X130274214Y-69387910D01*
X130034616Y-69465760D01*
X129810151Y-69580132D01*
X129606350Y-69728201D01*
X129606345Y-69728205D01*
X129428205Y-69906345D01*
X129428201Y-69906350D01*
X129280132Y-70110151D01*
X129165760Y-70334616D01*
X129087910Y-70574214D01*
X129048500Y-70823038D01*
X99611858Y-70823038D01*
X99604147Y-64630902D01*
X167228500Y-64630902D01*
X167228500Y-64867097D01*
X167265446Y-65100368D01*
X167338433Y-65324996D01*
X167445657Y-65535433D01*
X167584483Y-65726510D01*
X167751490Y-65893517D01*
X167942567Y-66032343D01*
X168041991Y-66083002D01*
X168153003Y-66139566D01*
X168153005Y-66139566D01*
X168153008Y-66139568D01*
X168273412Y-66178689D01*
X168377631Y-66212553D01*
X168610903Y-66249500D01*
X168610908Y-66249500D01*
X168847097Y-66249500D01*
X169080368Y-66212553D01*
X169304992Y-66139568D01*
X169515433Y-66032343D01*
X169706510Y-65893517D01*
X169873517Y-65726510D01*
X170012343Y-65535433D01*
X170119568Y-65324992D01*
X170192553Y-65100368D01*
X170210176Y-64989102D01*
X170229500Y-64867097D01*
X170229500Y-64630902D01*
X173728500Y-64630902D01*
X173728500Y-64867097D01*
X173765446Y-65100368D01*
X173838433Y-65324996D01*
X173945657Y-65535433D01*
X174084483Y-65726510D01*
X174251490Y-65893517D01*
X174442567Y-66032343D01*
X174541991Y-66083002D01*
X174653003Y-66139566D01*
X174653005Y-66139566D01*
X174653008Y-66139568D01*
X174773412Y-66178689D01*
X174877631Y-66212553D01*
X175110903Y-66249500D01*
X175110908Y-66249500D01*
X175347097Y-66249500D01*
X175580368Y-66212553D01*
X175804992Y-66139568D01*
X176015433Y-66032343D01*
X176206510Y-65893517D01*
X176373517Y-65726510D01*
X176512343Y-65535433D01*
X176619568Y-65324992D01*
X176692553Y-65100368D01*
X176710176Y-64989102D01*
X176729500Y-64867097D01*
X176729500Y-64630902D01*
X176692553Y-64397631D01*
X176619566Y-64173003D01*
X176563002Y-64061991D01*
X176512343Y-63962567D01*
X176373517Y-63771490D01*
X176206510Y-63604483D01*
X176036478Y-63480947D01*
X179179000Y-63480947D01*
X179179000Y-63717052D01*
X179215934Y-63950247D01*
X179288897Y-64174802D01*
X179396087Y-64385174D01*
X179456338Y-64468104D01*
X179456340Y-64468105D01*
X180155212Y-63769233D01*
X180166482Y-63811292D01*
X180238890Y-63936708D01*
X180341292Y-64039110D01*
X180466708Y-64111518D01*
X180508765Y-64122787D01*
X179809893Y-64821658D01*
X179892828Y-64881914D01*
X180103197Y-64989102D01*
X180327752Y-65062065D01*
X180327751Y-65062065D01*
X180560948Y-65099000D01*
X180797052Y-65099000D01*
X181030247Y-65062065D01*
X181254802Y-64989102D01*
X181465163Y-64881918D01*
X181465169Y-64881914D01*
X181548104Y-64821658D01*
X181548105Y-64821658D01*
X180849233Y-64122787D01*
X180891292Y-64111518D01*
X181016708Y-64039110D01*
X181119110Y-63936708D01*
X181191518Y-63811292D01*
X181202787Y-63769234D01*
X181901658Y-64468105D01*
X181901658Y-64468104D01*
X181961914Y-64385169D01*
X181961918Y-64385163D01*
X182069102Y-64174802D01*
X182142065Y-63950247D01*
X182179000Y-63717052D01*
X182179000Y-63480947D01*
X185679000Y-63480947D01*
X185679000Y-63717052D01*
X185715934Y-63950247D01*
X185788897Y-64174802D01*
X185896087Y-64385174D01*
X185956338Y-64468104D01*
X185956340Y-64468105D01*
X186655212Y-63769233D01*
X186666482Y-63811292D01*
X186738890Y-63936708D01*
X186841292Y-64039110D01*
X186966708Y-64111518D01*
X187008765Y-64122787D01*
X186309893Y-64821658D01*
X186392828Y-64881914D01*
X186603197Y-64989102D01*
X186827752Y-65062065D01*
X186827751Y-65062065D01*
X187060948Y-65099000D01*
X187297052Y-65099000D01*
X187530247Y-65062065D01*
X187754802Y-64989102D01*
X187965163Y-64881918D01*
X187965169Y-64881914D01*
X188048104Y-64821658D01*
X188048105Y-64821658D01*
X187349233Y-64122787D01*
X187391292Y-64111518D01*
X187516708Y-64039110D01*
X187619110Y-63936708D01*
X187691518Y-63811292D01*
X187702787Y-63769233D01*
X188401658Y-64468105D01*
X188401658Y-64468104D01*
X188461914Y-64385169D01*
X188461918Y-64385163D01*
X188569102Y-64174802D01*
X188642065Y-63950247D01*
X188679000Y-63717052D01*
X188679000Y-63480947D01*
X188642065Y-63247752D01*
X188569102Y-63023197D01*
X188461914Y-62812828D01*
X188401658Y-62729894D01*
X188401658Y-62729893D01*
X187702787Y-63428765D01*
X187691518Y-63386708D01*
X187619110Y-63261292D01*
X187516708Y-63158890D01*
X187391292Y-63086482D01*
X187349234Y-63075212D01*
X188048105Y-62376340D01*
X188048104Y-62376338D01*
X187965174Y-62316087D01*
X187754802Y-62208897D01*
X187530247Y-62135934D01*
X187530248Y-62135934D01*
X187297052Y-62099000D01*
X187060948Y-62099000D01*
X186827752Y-62135934D01*
X186603197Y-62208897D01*
X186392830Y-62316084D01*
X186309894Y-62376340D01*
X187008766Y-63075212D01*
X186966708Y-63086482D01*
X186841292Y-63158890D01*
X186738890Y-63261292D01*
X186666482Y-63386708D01*
X186655212Y-63428766D01*
X185956340Y-62729894D01*
X185896084Y-62812830D01*
X185788897Y-63023197D01*
X185715934Y-63247752D01*
X185679000Y-63480947D01*
X182179000Y-63480947D01*
X182142065Y-63247752D01*
X182069102Y-63023197D01*
X181961914Y-62812828D01*
X181901658Y-62729894D01*
X181901658Y-62729893D01*
X181202787Y-63428765D01*
X181191518Y-63386708D01*
X181119110Y-63261292D01*
X181016708Y-63158890D01*
X180891292Y-63086482D01*
X180849234Y-63075212D01*
X181548105Y-62376340D01*
X181548104Y-62376339D01*
X181465174Y-62316087D01*
X181254802Y-62208897D01*
X181030247Y-62135934D01*
X181030248Y-62135934D01*
X180797052Y-62099000D01*
X180560948Y-62099000D01*
X180327752Y-62135934D01*
X180103197Y-62208897D01*
X179892830Y-62316084D01*
X179809894Y-62376340D01*
X180508766Y-63075212D01*
X180466708Y-63086482D01*
X180341292Y-63158890D01*
X180238890Y-63261292D01*
X180166482Y-63386708D01*
X180155212Y-63428766D01*
X179456340Y-62729894D01*
X179396084Y-62812830D01*
X179288897Y-63023197D01*
X179215934Y-63247752D01*
X179179000Y-63480947D01*
X176036478Y-63480947D01*
X176015433Y-63465657D01*
X175991411Y-63453417D01*
X175804996Y-63358433D01*
X175580368Y-63285446D01*
X175347097Y-63248500D01*
X175347092Y-63248500D01*
X175110908Y-63248500D01*
X175110903Y-63248500D01*
X174877631Y-63285446D01*
X174653003Y-63358433D01*
X174442566Y-63465657D01*
X174391784Y-63502553D01*
X174251490Y-63604483D01*
X174251488Y-63604485D01*
X174251487Y-63604485D01*
X174084485Y-63771487D01*
X174084485Y-63771488D01*
X174084483Y-63771490D01*
X174055565Y-63811292D01*
X173945657Y-63962566D01*
X173838433Y-64173003D01*
X173765446Y-64397631D01*
X173728500Y-64630902D01*
X170229500Y-64630902D01*
X170192553Y-64397631D01*
X170119566Y-64173003D01*
X170063002Y-64061991D01*
X170012343Y-63962567D01*
X169873517Y-63771490D01*
X169706510Y-63604483D01*
X169515433Y-63465657D01*
X169491411Y-63453417D01*
X169304996Y-63358433D01*
X169080368Y-63285446D01*
X168847097Y-63248500D01*
X168847092Y-63248500D01*
X168610908Y-63248500D01*
X168610903Y-63248500D01*
X168377631Y-63285446D01*
X168153003Y-63358433D01*
X167942566Y-63465657D01*
X167891784Y-63502553D01*
X167751490Y-63604483D01*
X167751488Y-63604485D01*
X167751487Y-63604485D01*
X167584485Y-63771487D01*
X167584485Y-63771488D01*
X167584483Y-63771490D01*
X167555565Y-63811292D01*
X167445657Y-63962566D01*
X167338433Y-64173003D01*
X167265446Y-64397631D01*
X167228500Y-64630902D01*
X99604147Y-64630902D01*
X99600500Y-61702158D01*
X99600500Y-60048983D01*
X104428500Y-60048983D01*
X104428500Y-61249001D01*
X104428501Y-61249018D01*
X104439000Y-61351796D01*
X104439001Y-61351799D01*
X104494185Y-61518331D01*
X104494187Y-61518336D01*
X104508488Y-61541521D01*
X104586288Y-61667656D01*
X104710344Y-61791712D01*
X104859666Y-61883814D01*
X104921440Y-61904284D01*
X104978884Y-61944055D01*
X105005707Y-62008571D01*
X105006053Y-62031719D01*
X105003077Y-62069524D01*
X105682554Y-62749000D01*
X105676339Y-62749000D01*
X105574606Y-62776259D01*
X105483394Y-62828920D01*
X105408920Y-62903394D01*
X105356259Y-62994606D01*
X105329000Y-63096339D01*
X105329000Y-63102553D01*
X104649524Y-62423077D01*
X104649523Y-62423077D01*
X104617143Y-62467644D01*
X104524244Y-62649968D01*
X104461009Y-62844582D01*
X104429000Y-63046682D01*
X104429000Y-63251317D01*
X104461009Y-63453417D01*
X104524244Y-63648031D01*
X104617141Y-63830350D01*
X104617147Y-63830359D01*
X104649523Y-63874921D01*
X104649524Y-63874922D01*
X105329000Y-63195446D01*
X105329000Y-63201661D01*
X105356259Y-63303394D01*
X105408920Y-63394606D01*
X105483394Y-63469080D01*
X105574606Y-63521741D01*
X105676339Y-63549000D01*
X105682553Y-63549000D01*
X105003076Y-64228474D01*
X105047650Y-64260859D01*
X105229968Y-64353755D01*
X105424582Y-64416990D01*
X105626683Y-64449000D01*
X105831317Y-64449000D01*
X106033417Y-64416990D01*
X106228031Y-64353755D01*
X106410349Y-64260859D01*
X106454921Y-64228474D01*
X105775447Y-63549000D01*
X105781661Y-63549000D01*
X105883394Y-63521741D01*
X105974606Y-63469080D01*
X106049080Y-63394606D01*
X106101741Y-63303394D01*
X106129000Y-63201661D01*
X106129000Y-63195447D01*
X106808474Y-63874921D01*
X106840859Y-63830349D01*
X106933755Y-63648031D01*
X106996990Y-63453417D01*
X107029000Y-63251317D01*
X107029000Y-63046682D01*
X106996990Y-62844582D01*
X106933755Y-62649968D01*
X106840859Y-62467650D01*
X106808474Y-62423077D01*
X106808474Y-62423076D01*
X106129000Y-63102551D01*
X106129000Y-63096339D01*
X106101741Y-62994606D01*
X106049080Y-62903394D01*
X105974606Y-62828920D01*
X105883394Y-62776259D01*
X105781661Y-62749000D01*
X105775446Y-62749000D01*
X106454921Y-62069525D01*
X106451946Y-62031719D01*
X106466310Y-61963341D01*
X106515361Y-61913584D01*
X106536555Y-61904285D01*
X106598334Y-61883814D01*
X106747656Y-61791712D01*
X106871712Y-61667656D01*
X106963814Y-61518334D01*
X107018999Y-61351797D01*
X107029500Y-61249009D01*
X107029499Y-60048992D01*
X107028416Y-60038394D01*
X107018999Y-59946203D01*
X107018998Y-59946200D01*
X107013743Y-59930342D01*
X106963814Y-59779666D01*
X106963054Y-59778434D01*
X106963054Y-59778433D01*
X106963052Y-59778431D01*
X106941965Y-59744244D01*
X106924843Y-59716484D01*
X131978500Y-59716484D01*
X131978500Y-62116515D01*
X131989000Y-62219295D01*
X131989001Y-62219297D01*
X132000419Y-62253755D01*
X132044186Y-62385835D01*
X132044187Y-62385837D01*
X132136286Y-62535151D01*
X132136289Y-62535155D01*
X132260344Y-62659210D01*
X132260348Y-62659213D01*
X132409662Y-62751312D01*
X132409664Y-62751313D01*
X132409666Y-62751314D01*
X132576203Y-62806499D01*
X132678992Y-62817000D01*
X132678997Y-62817000D01*
X135079003Y-62817000D01*
X135079008Y-62817000D01*
X135181797Y-62806499D01*
X135348334Y-62751314D01*
X135497655Y-62659211D01*
X135621711Y-62535155D01*
X135713814Y-62385834D01*
X135768999Y-62219297D01*
X135779500Y-62116508D01*
X135779500Y-60791966D01*
X136979000Y-60791966D01*
X136979000Y-61041033D01*
X137011508Y-61287963D01*
X137075973Y-61528549D01*
X137171283Y-61758648D01*
X137171288Y-61758659D01*
X137295813Y-61974341D01*
X137295819Y-61974349D01*
X137370400Y-62071545D01*
X138277958Y-61163987D01*
X138302978Y-61224390D01*
X138374112Y-61330851D01*
X138464649Y-61421388D01*
X138571110Y-61492522D01*
X138631511Y-61517541D01*
X137723953Y-62425098D01*
X137821150Y-62499680D01*
X137821158Y-62499686D01*
X138036840Y-62624211D01*
X138036851Y-62624216D01*
X138266950Y-62719526D01*
X138507536Y-62783991D01*
X138754466Y-62816500D01*
X139003534Y-62816500D01*
X139250463Y-62783991D01*
X139491049Y-62719526D01*
X139721148Y-62624216D01*
X139721159Y-62624211D01*
X139936855Y-62499678D01*
X140034045Y-62425100D01*
X140034045Y-62425097D01*
X139126488Y-61517541D01*
X139186890Y-61492522D01*
X139293351Y-61421388D01*
X139383888Y-61330851D01*
X139455022Y-61224390D01*
X139480041Y-61163989D01*
X140387597Y-62071545D01*
X140387600Y-62071545D01*
X140462178Y-61974355D01*
X140586711Y-61758659D01*
X140586716Y-61758648D01*
X140682026Y-61528549D01*
X140746491Y-61287963D01*
X140779000Y-61041033D01*
X140779000Y-60791966D01*
X140746491Y-60545034D01*
X140701715Y-60377927D01*
X140693959Y-60348983D01*
X144928500Y-60348983D01*
X144928500Y-61549001D01*
X144928501Y-61549018D01*
X144939000Y-61651796D01*
X144939001Y-61651799D01*
X144982280Y-61782404D01*
X144994186Y-61818334D01*
X145086288Y-61967656D01*
X145210344Y-62091712D01*
X145359666Y-62183814D01*
X145526203Y-62238999D01*
X145628991Y-62249500D01*
X146829008Y-62249499D01*
X146931797Y-62238999D01*
X147098334Y-62183814D01*
X147247656Y-62091712D01*
X147371712Y-61967656D01*
X147463814Y-61818334D01*
X147487102Y-61748054D01*
X147491110Y-61740050D01*
X147509060Y-61720772D01*
X147524055Y-61699116D01*
X147532495Y-61695606D01*
X147538725Y-61688917D01*
X147564249Y-61682404D01*
X147588571Y-61672292D01*
X147604834Y-61672048D01*
X147606425Y-61671643D01*
X147607523Y-61672008D01*
X147611719Y-61671946D01*
X147649525Y-61674921D01*
X148329000Y-60995446D01*
X148329000Y-61001661D01*
X148356259Y-61103394D01*
X148408920Y-61194606D01*
X148483394Y-61269080D01*
X148574606Y-61321741D01*
X148676339Y-61349000D01*
X148682553Y-61349000D01*
X148003076Y-62028474D01*
X148047650Y-62060859D01*
X148229968Y-62153755D01*
X148424582Y-62216990D01*
X148626683Y-62249000D01*
X148831317Y-62249000D01*
X149033417Y-62216990D01*
X149228031Y-62153755D01*
X149410349Y-62060859D01*
X149454921Y-62028474D01*
X148775447Y-61349000D01*
X148781661Y-61349000D01*
X148883394Y-61321741D01*
X148974606Y-61269080D01*
X149049080Y-61194606D01*
X149101741Y-61103394D01*
X149129000Y-61001661D01*
X149129000Y-60995448D01*
X149808474Y-61674922D01*
X149808474Y-61674921D01*
X149840859Y-61630349D01*
X149933755Y-61448031D01*
X149996990Y-61253417D01*
X150029000Y-61051317D01*
X150029000Y-60846682D01*
X149996990Y-60644582D01*
X149944862Y-60484153D01*
X149944861Y-60484151D01*
X149933755Y-60449970D01*
X149933252Y-60448983D01*
X154723388Y-60448983D01*
X154723388Y-61649001D01*
X154723389Y-61649018D01*
X154733888Y-61751796D01*
X154733889Y-61751799D01*
X154784418Y-61904283D01*
X154789074Y-61918334D01*
X154881176Y-62067656D01*
X155005232Y-62191712D01*
X155154554Y-62283814D01*
X155321091Y-62338999D01*
X155423879Y-62349500D01*
X156623896Y-62349499D01*
X156726685Y-62338999D01*
X156893222Y-62283814D01*
X157042544Y-62191712D01*
X157166600Y-62067656D01*
X157258702Y-61918334D01*
X157281990Y-61848054D01*
X157285998Y-61840050D01*
X157303948Y-61820772D01*
X157318943Y-61799116D01*
X157327383Y-61795606D01*
X157333613Y-61788917D01*
X157359137Y-61782404D01*
X157383459Y-61772292D01*
X157399722Y-61772048D01*
X157401313Y-61771643D01*
X157402411Y-61772008D01*
X157406607Y-61771946D01*
X157444413Y-61774921D01*
X158123888Y-61095446D01*
X158123888Y-61101661D01*
X158151147Y-61203394D01*
X158203808Y-61294606D01*
X158278282Y-61369080D01*
X158369494Y-61421741D01*
X158471227Y-61449000D01*
X158477441Y-61449000D01*
X157797964Y-62128474D01*
X157842538Y-62160859D01*
X158024856Y-62253755D01*
X158219470Y-62316990D01*
X158421571Y-62349000D01*
X158626205Y-62349000D01*
X158828305Y-62316990D01*
X158863151Y-62305668D01*
X159022919Y-62253755D01*
X159205237Y-62160859D01*
X159249809Y-62128474D01*
X158570335Y-61449000D01*
X158576549Y-61449000D01*
X158678282Y-61421741D01*
X158769494Y-61369080D01*
X158843968Y-61294606D01*
X158896629Y-61203394D01*
X158923888Y-61101661D01*
X158923888Y-61095448D01*
X159603362Y-61774922D01*
X159603362Y-61774921D01*
X159635747Y-61730349D01*
X159728643Y-61548031D01*
X159781265Y-61386080D01*
X159791878Y-61353417D01*
X159823888Y-61151317D01*
X159823888Y-60946682D01*
X159791878Y-60744582D01*
X159728643Y-60549968D01*
X159635747Y-60367650D01*
X159603362Y-60323077D01*
X159603362Y-60323076D01*
X158923888Y-61002551D01*
X158923888Y-60996339D01*
X158896629Y-60894606D01*
X158843968Y-60803394D01*
X158769494Y-60728920D01*
X158678282Y-60676259D01*
X158576549Y-60649000D01*
X158570334Y-60649000D01*
X159088388Y-60130947D01*
X167229000Y-60130947D01*
X167229000Y-60367052D01*
X167265934Y-60600247D01*
X167338897Y-60824802D01*
X167446087Y-61035174D01*
X167506338Y-61118104D01*
X167506340Y-61118105D01*
X168205212Y-60419233D01*
X168216482Y-60461292D01*
X168288890Y-60586708D01*
X168391292Y-60689110D01*
X168516708Y-60761518D01*
X168558765Y-60772787D01*
X167859893Y-61471658D01*
X167942828Y-61531914D01*
X168153197Y-61639102D01*
X168377752Y-61712065D01*
X168377751Y-61712065D01*
X168610948Y-61749000D01*
X168847052Y-61749000D01*
X169080247Y-61712065D01*
X169304802Y-61639102D01*
X169515163Y-61531918D01*
X169515169Y-61531914D01*
X169598104Y-61471658D01*
X169598105Y-61471658D01*
X168899233Y-60772787D01*
X168941292Y-60761518D01*
X169066708Y-60689110D01*
X169169110Y-60586708D01*
X169241518Y-60461292D01*
X169252787Y-60419233D01*
X169951658Y-61118105D01*
X169951658Y-61118104D01*
X170011914Y-61035169D01*
X170011918Y-61035163D01*
X170119102Y-60824802D01*
X170192065Y-60600247D01*
X170229000Y-60367052D01*
X170229000Y-60130947D01*
X173729000Y-60130947D01*
X173729000Y-60367052D01*
X173765934Y-60600247D01*
X173838897Y-60824802D01*
X173946087Y-61035174D01*
X174006338Y-61118104D01*
X174006340Y-61118105D01*
X174705212Y-60419233D01*
X174716482Y-60461292D01*
X174788890Y-60586708D01*
X174891292Y-60689110D01*
X175016708Y-60761518D01*
X175058765Y-60772787D01*
X174359893Y-61471658D01*
X174442828Y-61531914D01*
X174653197Y-61639102D01*
X174877752Y-61712065D01*
X174877751Y-61712065D01*
X175110948Y-61749000D01*
X175347052Y-61749000D01*
X175580247Y-61712065D01*
X175804802Y-61639102D01*
X176015163Y-61531918D01*
X176015169Y-61531914D01*
X176098104Y-61471658D01*
X176098105Y-61471658D01*
X175399233Y-60772787D01*
X175441292Y-60761518D01*
X175566708Y-60689110D01*
X175669110Y-60586708D01*
X175741518Y-60461292D01*
X175752787Y-60419233D01*
X176451658Y-61118105D01*
X176451658Y-61118104D01*
X176511914Y-61035169D01*
X176511918Y-61035163D01*
X176619102Y-60824802D01*
X176692065Y-60600247D01*
X176729000Y-60367052D01*
X176729000Y-60130947D01*
X176692065Y-59897752D01*
X176619102Y-59673197D01*
X176511914Y-59462828D01*
X176451658Y-59379894D01*
X176451658Y-59379893D01*
X175752787Y-60078765D01*
X175741518Y-60036708D01*
X175669110Y-59911292D01*
X175566708Y-59808890D01*
X175441292Y-59736482D01*
X175399234Y-59725212D01*
X176098105Y-59026340D01*
X176098104Y-59026338D01*
X176015174Y-58966087D01*
X175804802Y-58858897D01*
X175580247Y-58785934D01*
X175580248Y-58785934D01*
X175347052Y-58749000D01*
X175110948Y-58749000D01*
X174877752Y-58785934D01*
X174653197Y-58858897D01*
X174442830Y-58966084D01*
X174359894Y-59026340D01*
X175058766Y-59725212D01*
X175016708Y-59736482D01*
X174891292Y-59808890D01*
X174788890Y-59911292D01*
X174716482Y-60036708D01*
X174705212Y-60078766D01*
X174006340Y-59379894D01*
X173946084Y-59462830D01*
X173838897Y-59673197D01*
X173765934Y-59897752D01*
X173729000Y-60130947D01*
X170229000Y-60130947D01*
X170192065Y-59897752D01*
X170119102Y-59673197D01*
X170011914Y-59462828D01*
X169951658Y-59379894D01*
X169951658Y-59379893D01*
X169252787Y-60078765D01*
X169241518Y-60036708D01*
X169169110Y-59911292D01*
X169066708Y-59808890D01*
X168941292Y-59736482D01*
X168899234Y-59725212D01*
X169598105Y-59026340D01*
X169598104Y-59026339D01*
X169515174Y-58966087D01*
X169304802Y-58858897D01*
X169080247Y-58785934D01*
X169080248Y-58785934D01*
X168847052Y-58749000D01*
X168610948Y-58749000D01*
X168377752Y-58785934D01*
X168153197Y-58858897D01*
X167942830Y-58966084D01*
X167859894Y-59026340D01*
X168558766Y-59725212D01*
X168516708Y-59736482D01*
X168391292Y-59808890D01*
X168288890Y-59911292D01*
X168216482Y-60036708D01*
X168205212Y-60078766D01*
X167506340Y-59379894D01*
X167446084Y-59462830D01*
X167338897Y-59673197D01*
X167265934Y-59897752D01*
X167229000Y-60130947D01*
X159088388Y-60130947D01*
X159180941Y-60038394D01*
X159249810Y-59969524D01*
X159249809Y-59969523D01*
X159205247Y-59937147D01*
X159205238Y-59937141D01*
X159022919Y-59844244D01*
X158828305Y-59781009D01*
X158626205Y-59749000D01*
X158421571Y-59749000D01*
X158219470Y-59781009D01*
X158024856Y-59844244D01*
X157842532Y-59937143D01*
X157797965Y-59969523D01*
X157797965Y-59969524D01*
X158477442Y-60649000D01*
X158471227Y-60649000D01*
X158369494Y-60676259D01*
X158278282Y-60728920D01*
X158203808Y-60803394D01*
X158151147Y-60894606D01*
X158123888Y-60996339D01*
X158123888Y-61002553D01*
X157444412Y-60323077D01*
X157406607Y-60326053D01*
X157338229Y-60311689D01*
X157288472Y-60262638D01*
X157285998Y-60257949D01*
X157281989Y-60249942D01*
X157258702Y-60179666D01*
X157166600Y-60030344D01*
X157042544Y-59906288D01*
X156930448Y-59837147D01*
X156893224Y-59814187D01*
X156893219Y-59814185D01*
X156869387Y-59806288D01*
X156726685Y-59759001D01*
X156726683Y-59759000D01*
X156623898Y-59748500D01*
X155423886Y-59748500D01*
X155423869Y-59748501D01*
X155321091Y-59759000D01*
X155321088Y-59759001D01*
X155154556Y-59814185D01*
X155154551Y-59814187D01*
X155005230Y-59906289D01*
X154881177Y-60030342D01*
X154789075Y-60179663D01*
X154789073Y-60179668D01*
X154774689Y-60223076D01*
X154733889Y-60346203D01*
X154733889Y-60346204D01*
X154733888Y-60346204D01*
X154723388Y-60448983D01*
X149933252Y-60448983D01*
X149840859Y-60267650D01*
X149808474Y-60223077D01*
X149808474Y-60223076D01*
X149129000Y-60902551D01*
X149129000Y-60896339D01*
X149101741Y-60794606D01*
X149049080Y-60703394D01*
X148974606Y-60628920D01*
X148883394Y-60576259D01*
X148781661Y-60549000D01*
X148775446Y-60549000D01*
X149454922Y-59869524D01*
X149454921Y-59869523D01*
X149410359Y-59837147D01*
X149410350Y-59837141D01*
X149228031Y-59744244D01*
X149033417Y-59681009D01*
X148831317Y-59649000D01*
X148626683Y-59649000D01*
X148424582Y-59681009D01*
X148229968Y-59744244D01*
X148047644Y-59837143D01*
X148003077Y-59869523D01*
X148003077Y-59869524D01*
X148682554Y-60549000D01*
X148676339Y-60549000D01*
X148574606Y-60576259D01*
X148483394Y-60628920D01*
X148408920Y-60703394D01*
X148356259Y-60794606D01*
X148329000Y-60896339D01*
X148329000Y-60902553D01*
X147649524Y-60223077D01*
X147611719Y-60226053D01*
X147543341Y-60211689D01*
X147493584Y-60162638D01*
X147491110Y-60157949D01*
X147487101Y-60149942D01*
X147463814Y-60079666D01*
X147371712Y-59930344D01*
X147247656Y-59806288D01*
X147098334Y-59714186D01*
X146931797Y-59659001D01*
X146931795Y-59659000D01*
X146829010Y-59648500D01*
X145628998Y-59648500D01*
X145628981Y-59648501D01*
X145526203Y-59659000D01*
X145526200Y-59659001D01*
X145359668Y-59714185D01*
X145359663Y-59714187D01*
X145210342Y-59806289D01*
X145086289Y-59930342D01*
X144994187Y-60079663D01*
X144994186Y-60079666D01*
X144939001Y-60246203D01*
X144939001Y-60246204D01*
X144939000Y-60246204D01*
X144928500Y-60348983D01*
X140693959Y-60348983D01*
X140682026Y-60304450D01*
X140586716Y-60074351D01*
X140586711Y-60074340D01*
X140462186Y-59858658D01*
X140462180Y-59858650D01*
X140387598Y-59761453D01*
X139480041Y-60669010D01*
X139455022Y-60608610D01*
X139383888Y-60502149D01*
X139293351Y-60411612D01*
X139186890Y-60340478D01*
X139126487Y-60315457D01*
X140034045Y-59407900D01*
X139936849Y-59333319D01*
X139936841Y-59333313D01*
X139721159Y-59208788D01*
X139721143Y-59208780D01*
X139671360Y-59188160D01*
X139671359Y-59188160D01*
X139491049Y-59113473D01*
X139250463Y-59049008D01*
X139003534Y-59016500D01*
X138754466Y-59016500D01*
X138507536Y-59049008D01*
X138266950Y-59113473D01*
X138036851Y-59208783D01*
X138036847Y-59208785D01*
X137821143Y-59333323D01*
X137723953Y-59407899D01*
X137723953Y-59407900D01*
X138631511Y-60315458D01*
X138571110Y-60340478D01*
X138464649Y-60411612D01*
X138374112Y-60502149D01*
X138302978Y-60608610D01*
X138277958Y-60669011D01*
X137370400Y-59761453D01*
X137370399Y-59761453D01*
X137295823Y-59858643D01*
X137171285Y-60074347D01*
X137171283Y-60074351D01*
X137075973Y-60304450D01*
X137011508Y-60545036D01*
X136979000Y-60791966D01*
X135779500Y-60791966D01*
X135779500Y-59716492D01*
X135768999Y-59613703D01*
X135713814Y-59447166D01*
X135693472Y-59414187D01*
X135621713Y-59297848D01*
X135621710Y-59297844D01*
X135497655Y-59173789D01*
X135497651Y-59173786D01*
X135348337Y-59081687D01*
X135348335Y-59081686D01*
X135265065Y-59054093D01*
X135181797Y-59026501D01*
X135181795Y-59026500D01*
X135079015Y-59016000D01*
X135079008Y-59016000D01*
X132678992Y-59016000D01*
X132678984Y-59016000D01*
X132576204Y-59026500D01*
X132576203Y-59026501D01*
X132409664Y-59081686D01*
X132409662Y-59081687D01*
X132260348Y-59173786D01*
X132260344Y-59173789D01*
X132136289Y-59297844D01*
X132136286Y-59297848D01*
X132044187Y-59447162D01*
X132044186Y-59447164D01*
X131989001Y-59613703D01*
X131989000Y-59613704D01*
X131978500Y-59716484D01*
X106924843Y-59716484D01*
X106871712Y-59630344D01*
X106747656Y-59506288D01*
X106598334Y-59414186D01*
X106431797Y-59359001D01*
X106431795Y-59359000D01*
X106329010Y-59348500D01*
X105128998Y-59348500D01*
X105128981Y-59348501D01*
X105026203Y-59359000D01*
X105026200Y-59359001D01*
X104859668Y-59414185D01*
X104859663Y-59414187D01*
X104710342Y-59506289D01*
X104586289Y-59630342D01*
X104494187Y-59779663D01*
X104494185Y-59779668D01*
X104482747Y-59814186D01*
X104439001Y-59946203D01*
X104439001Y-59946204D01*
X104439000Y-59946204D01*
X104428500Y-60048983D01*
X99600500Y-60048983D01*
X99600500Y-53024500D01*
X99620185Y-52957461D01*
X99672989Y-52911706D01*
X99724500Y-52900500D01*
X195175500Y-52900500D01*
X195242539Y-52920185D01*
G37*
%TD.AperFunction*%
%TD*%
M02*
